/* XPM */
static char *result[] = {
/* columns rows colors chars-per-pixel */
"64 64 10 1 ",
"  c #0F2E07",
". c #113408",
"X c #153E0A",
"o c #313408",
"O c #3E271D",
"+ c #523426",
"@ c #184B0C",
"# c #1F5C0F",
"$ c #226611",
"% c #257012",
/* pixels */
"oooooooooooooooooooooooooooooooooooooooooooooooo    oooooooooooo",
"ooooooooooooooooooooooooooooooooooooooooooooooo      ooooooooooo",
"oooooooooooooooooooooooooooooooooooooooooooooo        oooooooooo",
"ooooooooooooooooooooooooooooooooo%%oooooooooo          ooooooooo",
"ooooooooooooooooo@@ooooooooooooo%%%%oooooooo            oooooooo",
"Xooooooooooooooo@@@@ooooooooooo%%%%%%oooooo              ooooooX",
"XXooooooooooooo@@@@@@ooooooooo%%%%%%%%oooo                ooooXX",
"XXXooooooooooo@@@@@@@@ooooooo%%%%%%%%%%oo                  ooXXX",
"XXXXooooooooo@@@@@@@@@@ooooo%%%%%%%%%%%%                    XXXX",
"XXXXXooooooo@@@@@@@@@@@@ooo%%%%%%%%%%%%%%                  XXXXX",
"XXXXXXooooo@@@@@@@@@@@@@@o%%%%%%%%%%%%%%%%                XXXXXX",
"XXXXXXXooo@@@@@@@@@@@@@@@%%%%%%%%%%%%%%%%%%              XXXXXXX",
"XXXXXXXXo@@@@@@@@@@@@@@@%%%%%%%%%%%%%%%%%%%%            XXXXXXXX",
"XXXXXXXXX@@@@@@@@@@@@@@%%%%%%%%%%%%%%%%%%%%%%          XXXXXXXXX",
"XXXXXXXXXX@@@@@@@@@@@@%%%%%%%%%%%%%%%%%%%%%%%%        XXXXXXXXXX",
"XXXXXXXXXXX@@@@@@@@@@%%%%%%%%%%%%%%%%%%%%%%%%%%      XXXXXXXXXXX",
"XXXXXXXXXXXX@@@@@@@@%%%%%%%%%%%%%%%%%%%%%%%%%%%%    XXXXXXXXXXXX",
"XXXXXXXXXXXXX@@@@@@%%%%%%%%%%%%%%%%%%%%%%%%%%%%%%  XXXXXXXXXXXXX",
"XXXXXXXXXXXXXX@@@@%%%%%%%%%%%%%%%%%%%%%%%%%%%%%%%%XXXXXXXXXXXXXX",
"XXXXXXXXXXXXXXX@@%%%%%%%%%%%%%%%%%%%%%%%%%%%%%%%%%%XXXXXXXXXXXXX",
"XXXXXXXXXXXXXXXX%%%%%%%%%%%%%%%%%%%%%%%%%%%%%%%%%%%%XXXXXXXXXXXX",
"XXXXXXXXXXXXXXXXX%%%%%%%%%%%%%%%%%%%%%%%%%%%%%%%%%%%%XXXXXXXXXXX",
"XXXXXXXXXXXXXXXXXX%%%%%%%%%%%%%%%%%%%%%%%%%%%%%%%%%%%%XXXXXXXXXX",
"XXXXXXXXXXXXXXXXX##%%%%%%%%%%%%%%%%%%%%%%%%%%%%%%%%%%%%XXXXXXXXX",
"XXXXXXXXXXXXXXXX####%%%%%%%%%%%%%%%%%%%%%%%%%%%%%%%%%%%%XXXXXXXX",
"XXXXXXXXXXXXXXX######%%%%%%%%%%%%%%%%%%%%%%%%%%%%%%%%%%%XXXXXXXX",
"XXXXXXXXXXXXXX########%%%%%%%%%%%%%%%%%%%%%%%%%%%%%%%%%%XXXXXXXX",
"XXXXXXXXXXXXX##########%%%%%%%%%%%%%%%%%%%%%%%%%%%%%%$$%XXXXXXXX",
"XXXXXXXXXXXX############%%%%%%%%%%%%%%%%%%%%%%%%%%%%$$$$XXXXXXXX",
"XXXXXXXXXXX##############%%%%%%%%%%%%%%%%%%%%%%%%%%$$$$$$XXXXXXX",
"XXXXXXXXXX################%%%%%%%%%%%%%%%%%%%%%%%%$$$$$$$$XXXXXX",
"XXXXXXXXX##################%%%%%%%%%%%%%%%%%%%%%%$$$$$$$$$$XXXXX",
"XXXXXXXX####################%%%%%%%%%%%%%%%%%%%%$$$$$$$$$$$$XXXX",
"XXXXXXX######################%%%%%%%%%%%%%%%%%%$$$$$$$$$$$$$$XXX",
"XXXXXX########################%%%%%%%%%%%%%%%%$$$$$$$$$$$$$$$$XX",
"XXXXX##########################%%%%%%%%%%%%%%$$$$$$$$$$$$$$$$$$X",
"XXXX############################%%%%%%%%%%%%$$$$$$$$$$$$$$$$$$$$",
"XXX##############################%%%%%%%%%%$$$$$$$$$$$$$$$$$$$$$",
"XX################################%%%%%%%%$$$$$$$$$$$$$$$$$$$$$$",
"X##################################%%%%%%$$$$$$$$$$$$$$$$$$$$$$$",
"####################################%%%%$$$$$$$$$$$$$$$$$$$$$$$$",
"#####################################%%$$$$$$$$$$$$$$$$$$$$$$$$#",
"######################################$$$$$$$$$$$$$$$$$$$$$$$$##",
"#######################################$$$$$$$$$$$$$$$$$$$$$$###",
"########################################$$$$$$$$$$$$$$$$$$$$####",
"#########################################$$$$$$$$$$$$$$$$$$#####",
"##########################################$$$$$$$$$$$$$$$$######",
"###########################################$$$$$$$$$$$$$$#######",
"############################################$$$$$$$$$$$$########",
"#############################################$$$$$$$$$$#########",
"##############################################$$$$$$$$##########",
"##############################################$$$$$$$$##########",
"OOOOo##########################$$$$$$$$$$$$$$$$$$$$$$$$$$$$$$$$$",
"OOOOoo########################$$$$$$$$$$$$$$$$$$$$$$$$$$$$$$$$$$",
"OOOOooo######################OO$$$$$$$$$$$$$$$$$$$$$$$$$$$$$$$$$",
"OOOOoooo####################OOOO$$$$$$$$$$$$$$$$$$$$$$$$$$$$$$$$",
"OOOOoooooooo++++++++++++ooooOOOOOOOOoooooooooooo++++++++ooooOOOO",
"OOOOoooooooo++++++++++++ooooOOOOOOOOoooooooooooo++++++++ooooOOOO",
"OOOOoooooooo++++++++++++ooooOOOOOOOOoooooooooooo++++++++ooooOOOO",
"OOOOoooooooo++++++++++++ooooOOOOOOOOoooooooooooo++++++++ooooOOOO",
"OOOO........++++++++++++....OOOOOOOO............++++++++....OOOO",
"OOOO........++++++++++++....OOOOOOOO............++++++++....OOOO",
"OOOO........++++++++++++....OOOOOOOO............++++++++....OOOO",
"OOOO........++++++++++++....OOOOOOOO............++++++++....OOOO"
};
