/* XPM */
static char *result[] = {
/* columns rows colors chars-per-pixel */
"16 16 10 1 ",
"  c #0F2E07",
". c #113408",
"X c #153E0A",
"o c #313408",
"O c #3E271D",
"+ c #523426",
"@ c #184B0C",
"# c #1F5C0F",
"$ c #226611",
"% c #257012",
/* pixels */
"oooooooooooo ooo",
"oooo@ooo%oo   oo",
"Xoo@@@o%%%     o",
"XX@@@@%%%%%    X",
"XXX@@%%%%%%%  XX",
"XXXX%%%%%%%%%XXX",
"XXXX#%%%%%%%%%XX",
"XXX###%%%%%%%$XX",
"XX#####%%%%%$$$X",
"X#######%%%$$$$$",
"#########%$$$$$$",
"##########$$$$$#",
"###########$$$##",
"Oo#####O$$$$$$$$",
"Ooo+++oOOooo++oO",
"O..+++.OO...++.O"
};
