/* XPM */
static char *result[] = {
/* columns rows colors chars-per-pixel */
"64 64 8 1 ",
"  c #050817",
". c #8A1F1F",
"X c #E6DC02",
"o c #FFF300",
"O c #2234A0",
"+ c #293EC2",
"@ c #EEC39A",
"# c None",
/* pixels */
"####################XXXXoooooooooooooooo########################",
"####################XXXXoooooooooooooooo########################",
"####################XXXXoooooooooooooooo########################",
"####################XXXXoooooooooooooooo########################",
"############XXXXoooooooooooooooooooooooooooooooo################",
"############XXXXoooooooooooooooooooooooooooooooo################",
"############XXXXoooooooooooooooooooooooooooooooo################",
"############XXXXoooooooooooooooooooooooooooooooo################",
"########XXXXXXXXXXXXooooXXXXoooooooooooooooooooooooo############",
"########XXXXXXXXXXXXooooXXXXoooooooooooooooooooooooo############",
"########XXXXXXXXXXXXooooXXXXoooooooooooooooooooooooo############",
"########XXXXXXXXXXXXooooXXXXoooooooooooooooooooooooo############",
"########XXXXXXXXooooooooooooXXXXoooooooooooooooooooooooo########",
"########XXXXXXXXooooooooooooXXXXoooooooooooooooooooooooo########",
"########XXXXXXXXooooooooooooXXXXoooooooooooooooooooooooo########",
"########XXXXXXXXooooooooooooXXXXoooooooooooooooooooooooo########",
"####XXXXooooooooooooooooooooXXXXoooooooooooooooooooooooo########",
"####XXXXooooooooooooooooooooXXXXoooooooooooooooooooooooo########",
"####XXXXooooooooooooooooooooXXXXoooooooooooooooooooooooo########",
"####XXXXooooooooooooooooooooXXXXoooooooooooooooooooooooo########",
"####XXXXoooooooooooooooooooooooooooooooooooooooooooooooooooo####",
"####XXXXoooooooooooooooooooooooooooooooooooooooooooooooooooo####",
"####XXXXoooooooooooooooooooooooooooooooooooooooooooooooooooo####",
"####XXXXoooooooooooooooooooooooooooooooooooooooooooooooooooo####",
"####XXXXoooooooooooooooooooooooooooooooooooooooooooooooooooo####",
"####XXXXoooooooooooooooooooooooooooooooooooooooooooooooooooo####",
"####XXXXoooooooooooooooooooooooooooooooooooooooooooooooooooo####",
"####XXXXoooooooooooooooooooooooooooooooooooooooooooooooooooo####",
"####oooooooooooooooooooooooooooooooooooooooooooooooooooooooo####",
"####oooooooooooooooooooooooooooooooooooooooooooooooooooooooo####",
"####oooooooooooooooooooooooooooooooooooooooooooooooooooooooo####",
"####oooooooooooooooooooooooooooooooooooooooooooooooooooooooo####",
"####ooooooooooooooooooooooooooooooooooooooooXXXXoooooooooooo####",
"####ooooooooooooooooooooooooooooooooooooooooXXXXoooooooooooo####",
"####ooooooooooooooooooooooooooooooooooooooooXXXXoooooooooooo####",
"####ooooooooooooooooooooooooooooooooooooooooXXXXoooooooooooo####",
"####ooooooooXXXXooooooooooooooooooooooooooooooooXXXXoooooooo####",
"####ooooooooXXXXooooooooooooooooooooooooooooooooXXXXoooooooo####",
"####ooooooooXXXXooooooooooooooooooooooooooooooooXXXXoooooooo####",
"####ooooooooXXXXooooooooooooooooooooooooooooooooXXXXoooooooo####",
"####XXXXXXXXXXXXXXXXXXXXXXXXXXXXXXXXXXXXXXXXXXXXXXXXXXXXXXXX####",
"####XXXXXXXXXXXXXXXXXXXXXXXXXXXXXXXXXXXXXXXXXXXXXXXXXXXXXXXX####",
"####XXXXXXXXXXXXXXXXXXXXXXXXXXXXXXXXXXXXXXXXXXXXXXXXXXXXXXXX####",
"####XXXXXXXXXXXXXXXXXXXXXXXXXXXXXXXXXXXXXXXXXXXXXXXXXXXXXXXX####",
"############@@@@    OOOO++++++++++++++++OOOO    ################",
"############@@@@    OOOO++++++++++++++++OOOO    ################",
"############@@@@    OOOO++++++++++++++++OOOO    ################",
"############@@@@    OOOO++++++++++++++++OOOO    ################",
"############    OOOO++++++++++++++++++++++++@@@@    ############",
"############    OOOO++++++++++++++++++++++++@@@@    ############",
"############    OOOO++++++++++++++++++++++++@@@@    ############",
"############    OOOO++++++++++++++++++++++++@@@@    ############",
"########    OOOO++++            ++++++++++++++++OOOO    ########",
"########    OOOO++++            ++++++++++++++++OOOO    ########",
"########    OOOO++++            ++++++++++++++++OOOO    ########",
"########    OOOO++++            ++++++++++++++++OOOO    ########",
"########                ....                            ########",
"########                ....                            ########",
"########                ....                            ########",
"########                ....                            ########",
"####################                        ####################",
"####################                        ####################",
"####################                        ####################",
"####################                        ####################"
};
