/* XPM */
static char *result[] = {
/* columns rows colors chars-per-pixel */
"16 16 9 1 ",
"  c #050817",
". c #8A1F1F",
"X c #E6DC02",
"o c #FFF300",
"O c #2234A0",
"+ c #293EC2",
"@ c #E0B891",
"# c #EEC39A",
"$ c None",
/* pixels */
"$$$$$Xoooo$$$$$$",
"$$$ooooooooo$$$$",
"$$ooXoooooooo$$$",
"$$oXoooooooooo$$",
"$ooXoooooooooo$$",
"$ooooooooX@@@o$$",
"$oooooooX@## o$$",
"$oooooooo### o$$",
"$oooooooo####o$$",
"$oooooooo####o$$",
"$XXXXXXXX@## X$$",
"$$$$ O+++++ $$$$",
"$$$ O+++#+++ $$$",
"$$ O++OOO+++O $$",
"$$            $$",
"$$$$$$$ . $$$$$$"
};
