/* XPM */
static char *result[] = {
/* columns rows colors chars-per-pixel */
"64 64 9 1 ",
"  c #050817",
". c #8A1F1F",
"X c #E6DC02",
"o c #FFF300",
"O c #2234A0",
"+ c #293EC2",
"@ c #E0B891",
"# c #EEC39A",
"$ c None",
/* pixels */
"$$$$$$$$$$$$$$$$$$$$$$$$ooooooooooooooooXXXX$$$$$$$$$$$$$$$$$$$$",
"$$$$$$$$$$$$$$$$$$$$$$$$ooooooooooooooooXXXX$$$$$$$$$$$$$$$$$$$$",
"$$$$$$$$$$$$$$$$$$$$$$$$ooooooooooooooooXXXX$$$$$$$$$$$$$$$$$$$$",
"$$$$$$$$$$$$$$$$$$$$$$$$ooooooooooooooooXXXX$$$$$$$$$$$$$$$$$$$$",
"$$$$$$$$$$$$$$$$oooooooooooooooooooooooooooooooooooo$$$$$$$$$$$$",
"$$$$$$$$$$$$$$$$oooooooooooooooooooooooooooooooooooo$$$$$$$$$$$$",
"$$$$$$$$$$$$$$$$oooooooooooooooooooooooooooooooooooo$$$$$$$$$$$$",
"$$$$$$$$$$$$$$$$oooooooooooooooooooooooooooooooooooo$$$$$$$$$$$$",
"$$$$$$$$$$$$ooooooooooooooooooooooooooooooooXXXXoooooooo$$$$$$$$",
"$$$$$$$$$$$$ooooooooooooooooooooooooooooooooXXXXoooooooo$$$$$$$$",
"$$$$$$$$$$$$ooooooooooooooooooooooooooooooooXXXXoooooooo$$$$$$$$",
"$$$$$$$$$$$$ooooooooooooooooooooooooooooooooXXXXoooooooo$$$$$$$$",
"$$$$$$$$ooooooooooooooooooooooooooooooooooooooooXXXXoooo$$$$$$$$",
"$$$$$$$$ooooooooooooooooooooooooooooooooooooooooXXXXoooo$$$$$$$$",
"$$$$$$$$ooooooooooooooooooooooooooooooooooooooooXXXXoooo$$$$$$$$",
"$$$$$$$$ooooooooooooooooooooooooooooooooooooooooXXXXoooo$$$$$$$$",
"$$$$$$$$ooooooooooooooooooooooooooooooooooooooooXXXXoooooooo$$$$",
"$$$$$$$$ooooooooooooooooooooooooooooooooooooooooXXXXoooooooo$$$$",
"$$$$$$$$ooooooooooooooooooooooooooooooooooooooooXXXXoooooooo$$$$",
"$$$$$$$$ooooooooooooooooooooooooooooooooooooooooXXXXoooooooo$$$$",
"$$$$$$$$oooo@@@@@@@@@@@@XXXXoooooooooooooooooooooooooooooooo$$$$",
"$$$$$$$$oooo@@@@@@@@@@@@XXXXoooooooooooooooooooooooooooooooo$$$$",
"$$$$$$$$oooo@@@@@@@@@@@@XXXXoooooooooooooooooooooooooooooooo$$$$",
"$$$$$$$$oooo@@@@@@@@@@@@XXXXoooooooooooooooooooooooooooooooo$$$$",
"$$$$$$$$oooo    ########@@@@XXXXoooooooooooooooooooooooooooo$$$$",
"$$$$$$$$oooo    ########@@@@XXXXoooooooooooooooooooooooooooo$$$$",
"$$$$$$$$oooo    ########@@@@XXXXoooooooooooooooooooooooooooo$$$$",
"$$$$$$$$oooo    ########@@@@XXXXoooooooooooooooooooooooooooo$$$$",
"$$$$$$$$oooo    ############oooooooooooooooooooooooooooooooo$$$$",
"$$$$$$$$oooo    ############oooooooooooooooooooooooooooooooo$$$$",
"$$$$$$$$oooo    ############oooooooooooooooooooooooooooooooo$$$$",
"$$$$$$$$oooo    ############oooooooooooooooooooooooooooooooo$$$$",
"$$$$$$$$oooo################oooooooooooooooooooooooooooooooo$$$$",
"$$$$$$$$oooo################oooooooooooooooooooooooooooooooo$$$$",
"$$$$$$$$oooo################oooooooooooooooooooooooooooooooo$$$$",
"$$$$$$$$oooo################oooooooooooooooooooooooooooooooo$$$$",
"$$$$$$$$oooo################oooooooooooooooooooooooooooooooo$$$$",
"$$$$$$$$oooo################oooooooooooooooooooooooooooooooo$$$$",
"$$$$$$$$oooo################oooooooooooooooooooooooooooooooo$$$$",
"$$$$$$$$oooo################oooooooooooooooooooooooooooooooo$$$$",
"$$$$$$$$XXXX    ########@@@@XXXXXXXXXXXXXXXXXXXXXXXXXXXXXXXX$$$$",
"$$$$$$$$XXXX    ########@@@@XXXXXXXXXXXXXXXXXXXXXXXXXXXXXXXX$$$$",
"$$$$$$$$XXXX    ########@@@@XXXXXXXXXXXXXXXXXXXXXXXXXXXXXXXX$$$$",
"$$$$$$$$XXXX    ########@@@@XXXXXXXXXXXXXXXXXXXXXXXXXXXXXXXX$$$$",
"$$$$$$$$$$$$$$$$    ++++++++++++++++++++OOOO    $$$$$$$$$$$$$$$$",
"$$$$$$$$$$$$$$$$    ++++++++++++++++++++OOOO    $$$$$$$$$$$$$$$$",
"$$$$$$$$$$$$$$$$    ++++++++++++++++++++OOOO    $$$$$$$$$$$$$$$$",
"$$$$$$$$$$$$$$$$    ++++++++++++++++++++OOOO    $$$$$$$$$$$$$$$$",
"$$$$$$$$$$$$    ++++++++++++++++++++++++####OOOO    $$$$$$$$$$$$",
"$$$$$$$$$$$$    ++++++++++++++++++++++++####OOOO    $$$$$$$$$$$$",
"$$$$$$$$$$$$    ++++++++++++++++++++++++####OOOO    $$$$$$$$$$$$",
"$$$$$$$$$$$$    ++++++++++++++++++++++++####OOOO    $$$$$$$$$$$$",
"$$$$$$$$    OOOOOOOO++++++++OOOOOOOOOOOO++++++++OOOO    $$$$$$$$",
"$$$$$$$$    OOOOOOOO++++++++OOOOOOOOOOOO++++++++OOOO    $$$$$$$$",
"$$$$$$$$    OOOOOOOO++++++++OOOOOOOOOOOO++++++++OOOO    $$$$$$$$",
"$$$$$$$$    OOOOOOOO++++++++OOOOOOOOOOOO++++++++OOOO    $$$$$$$$",
"$$$$$$$$        ....                                    $$$$$$$$",
"$$$$$$$$        ....                                    $$$$$$$$",
"$$$$$$$$        ....                                    $$$$$$$$",
"$$$$$$$$        ....                                    $$$$$$$$",
"$$$$$$$$$$$$            $$$$    ....    $$$$$$$$$$$$$$$$$$$$$$$$",
"$$$$$$$$$$$$            $$$$    ....    $$$$$$$$$$$$$$$$$$$$$$$$",
"$$$$$$$$$$$$            $$$$    ....    $$$$$$$$$$$$$$$$$$$$$$$$",
"$$$$$$$$$$$$            $$$$    ....    $$$$$$$$$$$$$$$$$$$$$$$$"
};
