/* XPM */
static char *result[] = {
/* columns rows colors chars-per-pixel */
"64 64 10 1 ",
"  c #050817",
". c #8A1F1F",
"X c #E6DC02",
"o c #FFF300",
"O c #2234A0",
"+ c #293EC2",
"@ c #C6A280",
"# c #E0B891",
"$ c #EEC39A",
"% c None",
/* pixels */
"%%%%%%%%%%%%%%%%%%%%XXXXoooooooooooooooo%%%%%%%%%%%%%%%%%%%%%%%%",
"%%%%%%%%%%%%%%%%%%%%XXXXoooooooooooooooo%%%%%%%%%%%%%%%%%%%%%%%%",
"%%%%%%%%%%%%%%%%%%%%XXXXoooooooooooooooo%%%%%%%%%%%%%%%%%%%%%%%%",
"%%%%%%%%%%%%%%%%%%%%XXXXoooooooooooooooo%%%%%%%%%%%%%%%%%%%%%%%%",
"%%%%%%%%%%%%oooooooooooooooooooooooooooooooooooo%%%%%%%%%%%%%%%%",
"%%%%%%%%%%%%oooooooooooooooooooooooooooooooooooo%%%%%%%%%%%%%%%%",
"%%%%%%%%%%%%oooooooooooooooooooooooooooooooooooo%%%%%%%%%%%%%%%%",
"%%%%%%%%%%%%oooooooooooooooooooooooooooooooooooo%%%%%%%%%%%%%%%%",
"%%%%%%%%ooooooooXXXX####XXXXoooooooooooooooooooooooo%%%%%%%%%%%%",
"%%%%%%%%ooooooooXXXX####XXXXoooooooooooooooooooooooo%%%%%%%%%%%%",
"%%%%%%%%ooooooooXXXX####XXXXoooooooooooooooooooooooo%%%%%%%%%%%%",
"%%%%%%%%ooooooooXXXX####XXXXoooooooooooooooooooooooo%%%%%%%%%%%%",
"%%%%%%%%ooooXXXX####$$$$####XXXX$$$$$$$$####oooooooooooo%%%%%%%%",
"%%%%%%%%ooooXXXX####$$$$####XXXX$$$$$$$$####oooooooooooo%%%%%%%%",
"%%%%%%%%ooooXXXX####$$$$####XXXX$$$$$$$$####oooooooooooo%%%%%%%%",
"%%%%%%%%ooooXXXX####$$$$####XXXX$$$$$$$$####oooooooooooo%%%%%%%%",
"%%%%oooooooo@@@@####$$$$$$$$XXXX$$$$$$$$$$$$$$$$oooooooo%%%%%%%%",
"%%%%oooooooo@@@@####$$$$$$$$XXXX$$$$$$$$$$$$$$$$oooooooo%%%%%%%%",
"%%%%oooooooo@@@@####$$$$$$$$XXXX$$$$$$$$$$$$$$$$oooooooo%%%%%%%%",
"%%%%oooooooo@@@@####$$$$$$$$XXXX$$$$$$$$$$$$$$$$oooooooo%%%%%%%%",
"%%%%oooooooo@@@@$$$$$$$$$$$$$$$$$$$$$$$$$$$$$$$$@@@@oooooooo%%%%",
"%%%%oooooooo@@@@$$$$$$$$$$$$$$$$$$$$$$$$$$$$$$$$@@@@oooooooo%%%%",
"%%%%oooooooo@@@@$$$$$$$$$$$$$$$$$$$$$$$$$$$$$$$$@@@@oooooooo%%%%",
"%%%%oooooooo@@@@$$$$$$$$$$$$$$$$$$$$$$$$$$$$$$$$@@@@oooooooo%%%%",
"%%%%oooooooo@@@@$$$$$$$$    $$$$$$$$    $$$$$$$$@@@@oooooooo%%%%",
"%%%%oooooooo@@@@$$$$$$$$    $$$$$$$$    $$$$$$$$@@@@oooooooo%%%%",
"%%%%oooooooo@@@@$$$$$$$$    $$$$$$$$    $$$$$$$$@@@@oooooooo%%%%",
"%%%%oooooooo@@@@$$$$$$$$    $$$$$$$$    $$$$$$$$@@@@oooooooo%%%%",
"%%%%oooooooo@@@@$$$$$$$$    $$$$$$$$    $$$$$$$$@@@@oooooooo%%%%",
"%%%%oooooooo@@@@$$$$$$$$    $$$$$$$$    $$$$$$$$@@@@oooooooo%%%%",
"%%%%oooooooo@@@@$$$$$$$$    $$$$$$$$    $$$$$$$$@@@@oooooooo%%%%",
"%%%%oooooooo@@@@$$$$$$$$    $$$$$$$$    $$$$$$$$@@@@oooooooo%%%%",
"%%%%oooooooo@@@@####$$$$$$$$$$$$$$$$$$$$$$$$$$$$@@@@oooooooo%%%%",
"%%%%oooooooo@@@@####$$$$$$$$$$$$$$$$$$$$$$$$$$$$@@@@oooooooo%%%%",
"%%%%oooooooo@@@@####$$$$$$$$$$$$$$$$$$$$$$$$$$$$@@@@oooooooo%%%%",
"%%%%oooooooo@@@@####$$$$$$$$$$$$$$$$$$$$$$$$$$$$@@@@oooooooo%%%%",
"%%%%ooooooooXXXX@@@@####$$$$        $$$$####@@@@XXXXoooooooo%%%%",
"%%%%ooooooooXXXX@@@@####$$$$        $$$$####@@@@XXXXoooooooo%%%%",
"%%%%ooooooooXXXX@@@@####$$$$        $$$$####@@@@XXXXoooooooo%%%%",
"%%%%ooooooooXXXX@@@@####$$$$        $$$$####@@@@XXXXoooooooo%%%%",
"%%%%XXXXXXXXXXXXXXXX        OOOOOOOO        XXXXXXXXXXXXXXXX%%%%",
"%%%%XXXXXXXXXXXXXXXX        OOOOOOOO        XXXXXXXXXXXXXXXX%%%%",
"%%%%XXXXXXXXXXXXXXXX        OOOOOOOO        XXXXXXXXXXXXXXXX%%%%",
"%%%%XXXXXXXXXXXXXXXX        OOOOOOOO        XXXXXXXXXXXXXXXX%%%%",
"%%%%%%%%%%%%%%%%    OOOO++++++++++++$$$$++++    %%%%%%%%%%%%%%%%",
"%%%%%%%%%%%%%%%%    OOOO++++++++++++$$$$++++    %%%%%%%%%%%%%%%%",
"%%%%%%%%%%%%%%%%    OOOO++++++++++++$$$$++++    %%%%%%%%%%%%%%%%",
"%%%%%%%%%%%%%%%%    OOOO++++++++++++$$$$++++    %%%%%%%%%%%%%%%%",
"%%%%%%%%%%%%    $$$$OOOO++++++++++++++++++++++++    %%%%%%%%%%%%",
"%%%%%%%%%%%%    $$$$OOOO++++++++++++++++++++++++    %%%%%%%%%%%%",
"%%%%%%%%%%%%    $$$$OOOO++++++++++++++++++++++++    %%%%%%%%%%%%",
"%%%%%%%%%%%%    $$$$OOOO++++++++++++++++++++++++    %%%%%%%%%%%%",
"%%%%%%%%    OOOO++++++++OOOOOOOO            ++++OOOO    %%%%%%%%",
"%%%%%%%%    OOOO++++++++OOOOOOOO            ++++OOOO    %%%%%%%%",
"%%%%%%%%    OOOO++++++++OOOOOOOO            ++++OOOO    %%%%%%%%",
"%%%%%%%%    OOOO++++++++OOOOOOOO            ++++OOOO    %%%%%%%%",
"%%%%%%%%                            ....                %%%%%%%%",
"%%%%%%%%                            ....                %%%%%%%%",
"%%%%%%%%                            ....                %%%%%%%%",
"%%%%%%%%                            ....                %%%%%%%%",
"%%%%%%%%%%%%%%%%%%%%    ....                %%%%%%%%%%%%%%%%%%%%",
"%%%%%%%%%%%%%%%%%%%%    ....                %%%%%%%%%%%%%%%%%%%%",
"%%%%%%%%%%%%%%%%%%%%    ....                %%%%%%%%%%%%%%%%%%%%",
"%%%%%%%%%%%%%%%%%%%%    ....                %%%%%%%%%%%%%%%%%%%%"
};
