/* XPM */
static char *result[] = {
/* columns rows colors chars-per-pixel */
"16 16 8 1 ",
"  c #050817",
". c #8A1F1F",
"X c #E6DC02",
"o c #FFF300",
"O c #2234A0",
"+ c #293EC2",
"@ c #EEC39A",
"# c None",
/* pixels */
"#####Xoooo######",
"###Xoooooooo####",
"##XXXoXoooooo###",
"##XXoooXoooooo##",
"#XoooooXoooooo##",
"#Xooooooooooooo#",
"#Xooooooooooooo#",
"#oooooooooooooo#",
"#ooooooooooXooo#",
"#ooXooooooooXoo#",
"#XXXXXXXXXXXXXX#",
"#### O++++O @###",
"### @O++++++ ###",
"## O++OO   +O ##",
"##       .    ##",
"#####      #####"
};
