/* XPM */
static char *result[] = {
/* columns rows colors chars-per-pixel */
"16 16 10 1 ",
"  c #050817",
". c #8A1F1F",
"X c #E6DC02",
"o c #FFF300",
"O c #2234A0",
"+ c #293EC2",
"@ c #C6A280",
"# c #E0B891",
"$ c #EEC39A",
"% c None",
/* pixels */
"%%%%%Xoooo%%%%%%",
"%%%ooooooooo%%%%",
"%%ooX#Xoooooo%%%",
"%%oX#$#X$$#ooo%%",
"%oo@#$$X$$$$oo%%",
"%oo@$$$$$$$$@oo%",
"%oo@$$ $$ $$@oo%",
"%oo@$$ $$ $$@oo%",
"%oo@#$$$$$$$@oo%",
"%ooX@#$  $#@Xoo%",
"%XXXX  OO  XXXX%",
"%%%% $++++$ %%%%",
"%%% OO++++++ %%%",
"%% O++OOO+++O %%",
"%%            %%",
"%%%%% .  . %%%%%"
};
