/* XPM */
static char *result[] = {
/* columns rows colors chars-per-pixel */
"64 64 9 1 ",
"  c #050817",
". c #8A1F1F",
"X c #E6DC02",
"o c #FFF300",
"O c #2234A0",
"+ c #293EC2",
"@ c #E0B891",
"# c #EEC39A",
"$ c None",
/* pixels */
"$$$$$$$$$$$$$$$$$$$$XXXXoooooooooooooooo$$$$$$$$$$$$$$$$$$$$$$$$",
"$$$$$$$$$$$$$$$$$$$$XXXXoooooooooooooooo$$$$$$$$$$$$$$$$$$$$$$$$",
"$$$$$$$$$$$$$$$$$$$$XXXXoooooooooooooooo$$$$$$$$$$$$$$$$$$$$$$$$",
"$$$$$$$$$$$$$$$$$$$$XXXXoooooooooooooooo$$$$$$$$$$$$$$$$$$$$$$$$",
"$$$$$$$$$$$$oooooooooooooooooooooooooooooooooooo$$$$$$$$$$$$$$$$",
"$$$$$$$$$$$$oooooooooooooooooooooooooooooooooooo$$$$$$$$$$$$$$$$",
"$$$$$$$$$$$$oooooooooooooooooooooooooooooooooooo$$$$$$$$$$$$$$$$",
"$$$$$$$$$$$$oooooooooooooooooooooooooooooooooooo$$$$$$$$$$$$$$$$",
"$$$$$$$$ooooooooXXXXoooooooooooooooooooooooooooooooo$$$$$$$$$$$$",
"$$$$$$$$ooooooooXXXXoooooooooooooooooooooooooooooooo$$$$$$$$$$$$",
"$$$$$$$$ooooooooXXXXoooooooooooooooooooooooooooooooo$$$$$$$$$$$$",
"$$$$$$$$ooooooooXXXXoooooooooooooooooooooooooooooooo$$$$$$$$$$$$",
"$$$$$$$$ooooXXXXoooooooooooooooooooooooooooooooooooooooo$$$$$$$$",
"$$$$$$$$ooooXXXXoooooooooooooooooooooooooooooooooooooooo$$$$$$$$",
"$$$$$$$$ooooXXXXoooooooooooooooooooooooooooooooooooooooo$$$$$$$$",
"$$$$$$$$ooooXXXXoooooooooooooooooooooooooooooooooooooooo$$$$$$$$",
"$$$$ooooooooXXXXoooooooooooooooooooooooooooooooooooooooo$$$$$$$$",
"$$$$ooooooooXXXXoooooooooooooooooooooooooooooooooooooooo$$$$$$$$",
"$$$$ooooooooXXXXoooooooooooooooooooooooooooooooooooooooo$$$$$$$$",
"$$$$ooooooooXXXXoooooooooooooooooooooooooooooooooooooooo$$$$$$$$",
"$$$$ooooooooooooooooooooooooooooooooXXXX@@@@@@@@@@@@oooo$$$$$$$$",
"$$$$ooooooooooooooooooooooooooooooooXXXX@@@@@@@@@@@@oooo$$$$$$$$",
"$$$$ooooooooooooooooooooooooooooooooXXXX@@@@@@@@@@@@oooo$$$$$$$$",
"$$$$ooooooooooooooooooooooooooooooooXXXX@@@@@@@@@@@@oooo$$$$$$$$",
"$$$$ooooooooooooooooooooooooooooXXXX@@@@########    oooo$$$$$$$$",
"$$$$ooooooooooooooooooooooooooooXXXX@@@@########    oooo$$$$$$$$",
"$$$$ooooooooooooooooooooooooooooXXXX@@@@########    oooo$$$$$$$$",
"$$$$ooooooooooooooooooooooooooooXXXX@@@@########    oooo$$$$$$$$",
"$$$$oooooooooooooooooooooooooooooooo############    oooo$$$$$$$$",
"$$$$oooooooooooooooooooooooooooooooo############    oooo$$$$$$$$",
"$$$$oooooooooooooooooooooooooooooooo############    oooo$$$$$$$$",
"$$$$oooooooooooooooooooooooooooooooo############    oooo$$$$$$$$",
"$$$$oooooooooooooooooooooooooooooooo################oooo$$$$$$$$",
"$$$$oooooooooooooooooooooooooooooooo################oooo$$$$$$$$",
"$$$$oooooooooooooooooooooooooooooooo################oooo$$$$$$$$",
"$$$$oooooooooooooooooooooooooooooooo################oooo$$$$$$$$",
"$$$$oooooooooooooooooooooooooooooooo################oooo$$$$$$$$",
"$$$$oooooooooooooooooooooooooooooooo################oooo$$$$$$$$",
"$$$$oooooooooooooooooooooooooooooooo################oooo$$$$$$$$",
"$$$$oooooooooooooooooooooooooooooooo################oooo$$$$$$$$",
"$$$$XXXXXXXXXXXXXXXXXXXXXXXXXXXXXXXX@@@@########    XXXX$$$$$$$$",
"$$$$XXXXXXXXXXXXXXXXXXXXXXXXXXXXXXXX@@@@########    XXXX$$$$$$$$",
"$$$$XXXXXXXXXXXXXXXXXXXXXXXXXXXXXXXX@@@@########    XXXX$$$$$$$$",
"$$$$XXXXXXXXXXXXXXXXXXXXXXXXXXXXXXXX@@@@########    XXXX$$$$$$$$",
"$$$$$$$$$$$$$$$$    OOOO++++++++++++++++++++    $$$$$$$$$$$$$$$$",
"$$$$$$$$$$$$$$$$    OOOO++++++++++++++++++++    $$$$$$$$$$$$$$$$",
"$$$$$$$$$$$$$$$$    OOOO++++++++++++++++++++    $$$$$$$$$$$$$$$$",
"$$$$$$$$$$$$$$$$    OOOO++++++++++++++++++++    $$$$$$$$$$$$$$$$",
"$$$$$$$$$$$$    OOOO####++++++++++++++++++++++++    $$$$$$$$$$$$",
"$$$$$$$$$$$$    OOOO####++++++++++++++++++++++++    $$$$$$$$$$$$",
"$$$$$$$$$$$$    OOOO####++++++++++++++++++++++++    $$$$$$$$$$$$",
"$$$$$$$$$$$$    OOOO####++++++++++++++++++++++++    $$$$$$$$$$$$",
"$$$$$$$$    OOOO++++++++OOOOOOOOOOOO++++++++OOOOOOOO    $$$$$$$$",
"$$$$$$$$    OOOO++++++++OOOOOOOOOOOO++++++++OOOOOOOO    $$$$$$$$",
"$$$$$$$$    OOOO++++++++OOOOOOOOOOOO++++++++OOOOOOOO    $$$$$$$$",
"$$$$$$$$    OOOO++++++++OOOOOOOOOOOO++++++++OOOOOOOO    $$$$$$$$",
"$$$$$$$$                                    ....        $$$$$$$$",
"$$$$$$$$                                    ....        $$$$$$$$",
"$$$$$$$$                                    ....        $$$$$$$$",
"$$$$$$$$                                    ....        $$$$$$$$",
"$$$$$$$$$$$$$$$$$$$$$$$$    ....    $$$$            $$$$$$$$$$$$",
"$$$$$$$$$$$$$$$$$$$$$$$$    ....    $$$$            $$$$$$$$$$$$",
"$$$$$$$$$$$$$$$$$$$$$$$$    ....    $$$$            $$$$$$$$$$$$",
"$$$$$$$$$$$$$$$$$$$$$$$$    ....    $$$$            $$$$$$$$$$$$"
};
