/* XPM */
static char *result[] = {
/* columns rows colors chars-per-pixel */
"64 64 10 1 ",
"  c #222034",
". c #7F0000",
"X c #910000",
"o c #A30000",
"O c #B50000",
"+ c #C70000",
"@ c #E58C8C",
"# c #E4E4E4",
"$ c white",
"% c None",
/* pixels */
"%%%%%%%%%%%%%%%%%%%%%%%%%%%%%%%%%%%%%%%%%%%%%%%%%%%%%%%%%%%%%%%%",
"%%%%%%%%%%%%%%%%%%%%%%%%%%%%%%%%%%%%%%%%%%%%%%%%%%%%%%%%%%%%%%%%",
"%%%%%%%%%%%%%%%%%%%%%%%%%%%%%%%%%%%%%%%%%%%%%%%%%%%%%%%%%%%%%%%%",
"%%%%%%%%%%%%%%%%%%%%%%%%%%%%% %%%%%%%%%%%%%%%%%%%%%%%%%%%%%%%%%%",
"%%%%%%%%%%%%%%%%%%%%%%%%%%%% + %%%%%%%%%%%%%%%%%%%%%%%%%%%%%%%%%",
"%%%%%%%%%%%%%%%%%%%%%%%%%%% +++ %%%%%%%%%%%%%%%%%%%%%%%%%%%%%%%%",
"%%%%%%%%%%%%%%%%%%%%%%%%%% +++++ %%%%%%%%%%%%%%%%%%%%%%%%%%%%%%%",
"%%%%%%%%%%%%%  %%%%%%%%%% +++++++ %%%%%%%%%%%%%%%%%%%%%%%%%%%%%%",
"%%%%%%%%%%%% .. %%%%%%%% ++@@+@@++ %%%%%%%%%%%%%%%%%%%%%%%%%%%%%",
"%%%%%%%%%%% .... %%%%%% ++@@@@@@@++ %%%%%%%%%%%%%%%%%%%%%%%%%%%%",
"%%%%%%%%%% ...... %%%% ++@@@@@@@@@++ %%%%%%%%%%%%%%%%%%%%%%%%%%%",
"%%%%%%%%% ........ %% O+@@@@@@@@@@@++ %%%%%%%%%%%%%%%%%%%%%%%%%%",
"%%%%%%%% ..........  OO+@@@oo@oo@@@+++ %%%%%%%%%%%%%%%%%%%%%%%%%",
"%%%%%%% ............ O++@@ooooooo@@+++ %%%%%%%%%%%%%%%%%%%%%%%%%",
"%%%%%% .............. ++@@ooooooo@@+++ %%%%%%%%%%%%%%%%%%%%%%%%%",
"%%%%%% .............. +++@ooooooo@++++ %%%%%%%%%%%%%%%%%%%%%%%%%",
"%%%%%% .............. ++++@ooooo@+++++ %%%%%%%%%%%%%%%%%%%%%%%%%",
"%%%%%%% ............  O++++@ooo@+++++ %%%%%%%%%%%%%%%%%%%%%%%%%%",
"%%%%%%%% ... XX ...  % O++++@o@+++++         %%%%%%%%%%%%%%%%%%%",
"%%%%%%%%% .. XX ..  ++# O++++@+++++ $$$$$++++ %%%%%%%%%%%%%%%%%%",
"%%%%%%%%%%   XX   % +$$# O+++ ++++ $$$$$$$++$$  %%%%%%%%%%%%%%%%",
"%%%%%%%%%%%% XX %%% #$$$#    $    $$$$$$$$$$$$$$  %%%%%%%%%%%%%%",
"%%%%%%%%%%%% XX %%% #$$$$$$$$$$$$$$$$$$$$$$###$$$$ %%%%%%%%%%%%%",
"%%%%%%%%%%%% XX %% #$$$$$$$$$$$$$$$$$$$+$$$  ###$$$ %%%%%%%%%%%%",
"%%%%%%%%%%%% XX %% #$$$$$$$$$$$$$$$$$$+$+$$ %  ##$$ %%%%%%%%%%%%",
"%%%%%%%%%%%% XX % #$$$$$$$$$$$$$$$$$$+$$$+$ %%% #$$ %%%%%%%%%%%%",
"%%%%%%%%%%%%     #$$$ #$$$$$$$$$$$$$$+++++$ %%% #$$ %%%%%%%%%%%%",
"%%%%%%%%%%% O+++ $$$  #$$$$$$$$$$$$$$+$$$+$ %%% #$$ %%%%%%%%%%%%",
"%%%%%%%%%% OO++++ $$ ##$$$$$$$$$$$$$$+$$$+$ %%% #$$ %%%%%%%%%%%%",
"%%%%%%%%%% O+++++ $  #$$$$$$$$$$$$$$$$$$$$$ %%% #$$ %%%%%%%%%%%%",
"%%%%%%%%%% O+++++   ##$$$$$+++$+++$$$$$$$$$ %%% #$$ %%%%%%%%%%%%",
"%%%%%%%%%% O+++++  ##$$$$$+++++++++$$$$$$$$ %%%   $ %%%%%%%%%%%%",
"%%%%%%%%%% O+++++  ##$$$$+++++++++++$$$$$$$ %%% O+  %%%%%%%%%%%%",
"%%%%%%%%%%% ++++ % ##$$$$+++++++++++$$$$$$$ %% OO++ %%%%%%%%%%%%",
"%%%%%%%%%%%%    %% ##$$$$+++++++++++$$$$$$$ % OO++++ %%%%%%%%%%%",
"%%%%%%%%%%%% XX %% ##$$$$+++++++++++$$$$$$$ % O+++++ %%%%%%%%%%%",
"%%%%%%%%%%%% XX %% ##$$$$+++++++++++$$$$$$$ % O+++++ %%%%%%%%%%%",
"%%%%%%%%%%%% XX %% ##$$$$$+++++++++$$$$$$$$ %% ++++ %%%%%%%%%%%%",
"%%%%%%%%%%%% XX %% ##$$$$$$+++++++$$$$$$$$$ %%% ++ %%%%%%%%%%%%%",
"%%%%%%%%%%%% XX %% ##$$$$$$$+++++$$$$$$$$$$ %%%%  %%%%%%%%%%%%%%",
"%%%%%%%%%%%% XX %% ##$$$$$$$$+++$$$$$$$$$$$ %%%%%%%%%%%%%%%%%%%%",
"%%%%%%%%%%%% XX %% ##$$$$$$$$$+$$$$$$$$$$$$ %%%%%%%%%%%%%%%%%%%%",
"%%%%%%%%%%%% XX %% ##$$$$$$$$$$$$$$$$$$$$$$ %%%%%%%%%%%%%%%%%%%%",
"%%%%%%%%%%%% XX %% ##$$$$$$$$$$$$$$$$$$$$$$ %%%%%%%%%%%%%%%%%%%%",
"%%%%%%%%%%%% XX %% ##$$$$$$$$$$$$$$$$$$$$$$ %%%%%%%%%%%%%%%%%%%%",
"%%%%%%%%%%%% XX %% ##$$$$$$$$$$$$$$$$$$$$$$ %%%%%%%%%%%%%%%%%%%%",
"%%%%%%%%%%%% XX %% ##$$+$$$$$$$$$$$$$$$$$$$ %%%%%%%%%%%%%%%%%%%%",
"%%%%%%%%%%%% XX %% ##$+$+$$$$$$$$$$$$$$$$$$ %%%%%%%%%%%%%%%%%%%%",
"%%%%%%%%%%%% XX %% ##+$$$+$$$$$$$$$$$$$$$$$ %%%%%%%%%%%%%%%%%%%%",
"%%%%%%%%%%%% XX %% ##+++++$$$$$$$$$$$$$$$$$ %%%%%%%%%%%%%%%%%%%%",
"%%%%%%%%%%%% XX %% ##+$$$+$$$$$$$$$$$$$$$$$ %%%%%%%%%%%%%%%%%%%%",
"%%%%%%%%%%%% XX %% ##+$$$+$$$$$$$$$$$$$$$$$ %%%%%%%%%%%%%%%%%%%%",
"%%%%%%%%%%%% XX %% ##$$$$$$$$$$$$$$$$$$$$$$ %%%%%%%%%%%%%%%%%%%%",
"%%%%%%%%%%%% XX %% ##$$$$$$$$$$$$$$$$$$$$$$ %%%%%%%%%%%%%%%%%%%%",
"%%%%%%%%%%%% .. %% ##$$$$$$$$$$$$$$$$#++$$$ %%%%%%%%%%%%%%%%%%%%",
"%%%%%%%%%%% .... % ###++$$$$$$$$$$$$#++++$$ %%%%%%%%%%%%%%%%%%%%",
"%%%%%%%%%%% .... %%  ++++                  %%%%%%%%%%%%%%%%%%%%%",
"%%%%%%%%%%%% .. %%%%%%%%%%%%%%%%%%%%%%%%%%%%%%%%%%%%%%%%%%%%%%%%",
"%%%%%%%%%%%%%  %%%%%%%%%%%%%%%%%%%%%%%%%%%%%%%%%%%%%%%%%%%%%%%%%",
"%%%%%%%%%%%%%%%%%%%%%%%%%%%%%%%%%%%%%%%%%%%%%%%%%%%%%%%%%%%%%%%%",
"%%%%%%%%%%%%%%%%%%%%%%%%%%%%%%%%%%%%%%%%%%%%%%%%%%%%%%%%%%%%%%%%",
"%%%%%%%%%%%%%%%%%%%%%%%%%%%%%%%%%%%%%%%%%%%%%%%%%%%%%%%%%%%%%%%%",
"%%%%%%%%%%%%%%%%%%%%%%%%%%%%%%%%%%%%%%%%%%%%%%%%%%%%%%%%%%%%%%%%",
"%%%%%%%%%%%%%%%%%%%%%%%%%%%%%%%%%%%%%%%%%%%%%%%%%%%%%%%%%%%%%%%%"
};
