/* XPM */
static char *result[] = {
/* columns rows colors chars-per-pixel */
"64 64 10 1 ",
"  c #222034",
". c #7F0000",
"X c #910000",
"o c #A30000",
"O c #B50000",
"+ c #C70000",
"@ c #E58C8C",
"# c #E4E4E4",
"$ c white",
"% c None",
/* pixels */
"%%%%%%%%%%%%%%%%%%%%%%%%%%%%%%%%%%%%%%%%%%%%%%%%%%%%%%%%%%%%%%%%",
"%%%%%%%%%%  %%%%%%%%%%%%%%%%%%%%%%%%%%%%%%%%%%%%%%%%%%%%%%%%%%%%",
"%%%%%%%%% .. %%%%%%%%%%%%%%%%%%%%%%%%%%%%%%%%%%%%%%%%%%%%%%%%%%%",
"%%%%%%%% .... %%%%%%%%%%%%%%% %%%%%%%%%%%%%%%%%%%%%%%%%%%%%%%%%%",
"%%%%%%% ...... %%%%%%%%%%%%% + %%%%%%%%%%%%%%%%%%%%%%%%%%%%%%%%%",
"%%%%%% ........ %%%%%%%%%%% +++ %%%%%%%%%%%%%%%%%%%%%%%%%%%%%%%%",
"%%%%% .......... %%%%%%%%% +++++ %%%%%%%%%%%%%%%%%%%%%%%%%%%%%%%",
"%%%% ............ %%%%%%% +++++++ %%%%%%%%%%%%%%%%%%%%%%%%%%%%%%",
"%%% .............. %%%%% ++@@+@@++ %%%%%%%%%%%%%%%%%%%%%%%%%%%%%",
"%%% .............. %%%% ++@@@@@@@++ %%%%%%%%%%%%%%%%%%%%%%%%%%%%",
"%%% .............. %%% ++@@@@@@@@@++ %%%%%%%%%%%%%%%%%%%%%%%%%%%",
"%%%% ............ %%% O+@@@@@@@@@@@++ %%%%%%%%%%%%%%%%%%%%%%%%%%",
"%%%%% ... XX ... %%% OO+@@@oo@oo@@@+++ %%%%%%%%%%%%%%%%%%%%%%%%%",
"%%%%%% .. XX .. %%%% O++@@ooooooo@@+++ %%%%%%%%%%%%%%%%%%%%%%%%%",
"%%%%%%%   XX   %%%%% O++@@ooooooo@@+++ %%%%%%%%%%%%%%%%%%%%%%%%%",
"%%%%%%%%% XX %%%%%%% O+++@ooooooo@++++ %%%%%%%%%%%%%%%%%%%%%%%%%",
"%%%%%%%%% XX %%%%%%% O++++@ooooo@+++++ %%%%%%%%%%%%%%%%%%%%%%%%%",
"%%%%%%%%% XX %%%%%%%% O++++@ooo@+++++ %%%%%%%%%%%%%%%%%%%%%%%%%%",
"%%%%%%%%% XX %%%%      O++++@o@+++++         %%%%%%%%%%%%%%%%%%%",
"%%%%%%%%% XX %%% ++++$# O++++@+++++ $$$$$++++ %%%%%%%%%%%%%%%%%%",
"%%%%%%%%%    %% #$++$$$# O+++ ++++ $$$$$$$++$$ %%%%%%%%%%%%%%%%%",
"%%%%%%%% O+++  #$$$$$$$$#    $    $$$$$$$$$$$$$ %%%%%%%%%%%%%%%%",
"%%%%%%% OO++++ $$$ ##$$$$$$$$$$$$$$$$$$$$$$$$$$ %%%%%%%%%%%%%%%%",
"%%%%%%% O+++++ $$  ##$$$$$$$$$$$$$$$$$$+$$$ ##$$ %%%%%%%%%%%%%%%",
"%%%%%%% O+++++ $ % ##$$$$$$$$$$$$$$$$$+$+$$  #$$ %%%%%%%%%%%%%%%",
"%%%%%%% O+++++  %% ##$$$$$$$$$$$$$$$$+$$$+$  ##$$ %%%%%%%%%%%%%%",
"%%%%%%% O+++++ %%% ##$$$$$$$$$$$$$$$$+++++$ % #$$ %%%%%%%%%%%%%%",
"%%%%%%%% ++++ %%%% ##$$$$$$$$$$$$$$$$+$$$+$ % ##$$ %%%%%%%%%%%%%",
"%%%%%%%%%    %%%%% ##$$$$$$$$$$$$$$$$+$$$+$ %% #$$ %%%%%%%%%%%%%",
"%%%%%%%%% XX %%%%% ##$$$$$$$$$$$$$$$$$$$$$$ %% #$$ %%%%%%%%%%%%%",
"%%%%%%%%% XX %%%%% ##$$$$$$+++$+++$$$$$$$$$ %% #$$ %%%%%%%%%%%%%",
"%%%%%%%%% XX %%%%% ##$$$$$+++++++++$$$$$$$$ % ##$ %%%%%%%%%%%%%%",
"%%%%%%%%% XX %%%%% ##$$$$+++++++++++$$$$$$$  ##$$ %%%%%%%%%%%%%%",
"%%%%%%%%% XX %%%%% ##$$$$+++++++++++$$$$$   ##$$ %%%%%%%%%%%%%%%",
"%%%%%%%%% XX %%%%% ##$$$$+++++++++++$$$$ O+ #$$ %%%%%%%%%%%%%%%%",
"%%%%%%%%% XX %%%%% ##$$$$+++++++++++$$$ O+++ $ %%%%%%%%%%%%%%%%%",
"%%%%%%%%% XX %%%%% ##$$$$+++++++++++$$ OO++++ %%%%%%%%%%%%%%%%%%",
"%%%%%%%%% XX %%%%% ##$$$$$+++++++++$$$ O+++++ %%%%%%%%%%%%%%%%%%",
"%%%%%%%%% XX %%%%% ##$$$$$$+++++++$$$$ O+++++ %%%%%%%%%%%%%%%%%%",
"%%%%%%%%% XX %%%%% ##$$$$$$$+++++$$$$$$ O+++ %%%%%%%%%%%%%%%%%%%",
"%%%%%%%%% XX %%%%% ##$$$$$$$$+++$$$$$$$$ ++ %%%%%%%%%%%%%%%%%%%%",
"%%%%%%%%% XX %%%%% ##$$$$$$$$$+$$$$$$$$$$   %%%%%%%%%%%%%%%%%%%%",
"%%%%%%%%% XX %%%%% ##$$$$$$$$$$$$$$$$$$$$$$ %%%%%%%%%%%%%%%%%%%%",
"%%%%%%%%% XX %%%%% ##$$$$$$$$$$$$$$$$$$$$$$ %%%%%%%%%%%%%%%%%%%%",
"%%%%%%%%% XX %%%%% ##$$$$$$$$$$$$$$$$$$$$$$ %%%%%%%%%%%%%%%%%%%%",
"%%%%%%%%% XX %%%%% ##$$$$$$$$$$$$$$$$$$$$$$ %%%%%%%%%%%%%%%%%%%%",
"%%%%%%%%% XX %%%%% ##$$+$$$$$$$$$$$$$$$$$$$ %%%%%%%%%%%%%%%%%%%%",
"%%%%%%%%% XX %%%%% ##$+$+$$$$$$$$$$$$$$$$$$ %%%%%%%%%%%%%%%%%%%%",
"%%%%%%%%% .. %%%%% ##+$$$+$$$$$$$$$$$$$$$$$ %%%%%%%%%%%%%%%%%%%%",
"%%%%%%%% .... %%%% ##+++++$$$$$$$$$$$$$$$$$ %%%%%%%%%%%%%%%%%%%%",
"%%%%%%%% .... %%%% ##+$$$+$$$$$$$$$$$$$$$$$ %%%%%%%%%%%%%%%%%%%%",
"%%%%%%%%% .. %%%%% ##+$$$+$$$$$$$$$$$$$$$$$ %%%%%%%%%%%%%%%%%%%%",
"%%%%%%%%%%  %%%%%% ##$$$$$$$$$$$$$$$$$$$$$$ %%%%%%%%%%%%%%%%%%%%",
"%%%%%%%%%%%%%%%%%% ##$$$$$$$$$$$$$$$$$$$$$$ %%%%%%%%%%%%%%%%%%%%",
"%%%%%%%%%%%%%%%%%% ###++$$$$$$$$$$$$$$$$$$$ %%%%%%%%%%%%%%%%%%%%",
"%%%%%%%%%%%%%%%%%% ##++++$$$$$$$$$$$$$++$$$ %%%%%%%%%%%%%%%%%%%%",
"%%%%%%%%%%%%%%%%%%%                  ++++  %%%%%%%%%%%%%%%%%%%%%",
"%%%%%%%%%%%%%%%%%%%%%%%%%%%%%%%%%%%%%%%%%%%%%%%%%%%%%%%%%%%%%%%%",
"%%%%%%%%%%%%%%%%%%%%%%%%%%%%%%%%%%%%%%%%%%%%%%%%%%%%%%%%%%%%%%%%",
"%%%%%%%%%%%%%%%%%%%%%%%%%%%%%%%%%%%%%%%%%%%%%%%%%%%%%%%%%%%%%%%%",
"%%%%%%%%%%%%%%%%%%%%%%%%%%%%%%%%%%%%%%%%%%%%%%%%%%%%%%%%%%%%%%%%",
"%%%%%%%%%%%%%%%%%%%%%%%%%%%%%%%%%%%%%%%%%%%%%%%%%%%%%%%%%%%%%%%%",
"%%%%%%%%%%%%%%%%%%%%%%%%%%%%%%%%%%%%%%%%%%%%%%%%%%%%%%%%%%%%%%%%",
"%%%%%%%%%%%%%%%%%%%%%%%%%%%%%%%%%%%%%%%%%%%%%%%%%%%%%%%%%%%%%%%%"
};
