/* XPM */
static char *result[] = {
/* columns rows colors chars-per-pixel */
"64 64 8 1 ",
"  c gray5",
". c #130000",
"X c #353535",
"o c #505050",
"O c #EEB2B2",
"+ c #E4E4E4",
"@ c white",
"# c None",
/* pixels */
"################################################################",
"################################################################",
"################################################################",
"######################################..########################",
"#####################################.  .#######################",
"####################################.    .######################",
"###################################.      .#####################",
"##################################.        .####################",
"#################################.          .###################",
"################################.     OO     .##################",
"###############################.     OOOO     .#################",
"##############################.     OOOOOO     .################",
"##############################.    OOOOOOOO    .################",
"#############################.    OOOOOOOOOO    .###############",
"#############################.   OOOOOooOOOOO   .###############",
"#############################.   OOOOooooOOOO   .###############",
"#############################.   OOOooooooOOO   .###############",
"#############################.   OOOooooooOOO   .###############",
"###########################...    OOooooooOO    ...#############",
"##########################.  @+    OOo  oOO    @@  .############",
"##########################. @@@+              @@@@ .############",
"#########################.+@@@@@+    @  @    @@@@@@@.###########",
"########################.++@@@@@@@@@@    @@@@@@@@@@@@.##########",
"########################.+@@@@@@@@@@@@@@@@@@@@@ @@@@@@.#########",
"#######################.++@@@@@@@@@@@@@@@@@@@@ @ @@@@@@.########",
"#######################.+@@@@@@@@@@@@@@@@@@@@ @@@ @++@@@.#######",
"######################.++@@@@@@@@@@@@@@@@@@@@     @.++@@@.######",
"######################.+@@.++@@@@@@@@@@@@@@@@ @@@ @..++@@@.#####",
"#####################.++@..++@@@@@@@@@@@@@@@@ @@@ @.#.++@@@.####",
"#####################.+@@..++@@@@@@@@@@@@@@@@@@@@@@.##.++@@@.###",
"###############....##.+@@..++@@@@@@@@@@@@@@@@@@@@@@.###.++@@@.##",
"##############.    .#.+@@..++@@@@@@@@@  @@@@@@@@@@@.####.++@@.##",
"#############.      ..+@@..++@@@@@@@@    @@@@@@@@@@.#####.+@@.##",
"############.        .+@@..++@@@@@@@      @@@@@@@@@.####.++@@.##",
"###########.          ++@@.++@@@@@@        @@@@@@@@.###.++@@.###",
"##########.           .+@@@++@@@@@          @@@@@@@.##.++@@.####",
"#########.            .++@    @@@            @@@@@@.# ++@@.#####",
"########.            ...+      @              @@@@@     @.## .##",
"#######.           XXXXXX      XXXXXXXXXXXXXXXXXXX       XX    #",
"#######.           XXXXXX      XXXXXXXXXXXXXXXXXXX       XX    #",
"########.            ....      +              ++++       ..  . #",
"#########.            .###    @@@            @@@@@ .    .###  ##",
"##########.           .###.++@@@@@          @@@@@@@.....########",
"###########.          .###.++@@@@@@  @  @  @@@@@@@@.############",
"############.        .####.++@@@@@@@@@  @@@@@@@@@@@.############",
"#############.      .#####.++@@@@@@@@@  @@@@@@@@@@@.############",
"##############.    .######.++@ @@@@@@@@@@@@@@@@@@@@.############",
"###############....#######.++ @ @@@@@@@@@@@@@@@@@@@.############",
"##########################.+ @@@ @@@@@@@@@@@@@@@@@@.############",
"##########################.+     @@@@@@@@@@@@@@@@@@.############",
"##########################.+ @@@ @@@@@@@@@@@@@@@@@@.############",
"##########################.+ @@@ @@@@@@@@@@@@@@@@@@.############",
"##########################.++@@@@@@@@@@@@@@@@@@@@@@.############",
"##########################.++@@@@@@@@@@@@@@@@@@@@@@.############",
"##########################.++@@@@@@@@@@@@@@@@@@@@@@.############",
"##########################.+++  @@@@@@@@@@@@@@  @@@.############",
"###########################..    ............    ..#############",
"#############################....############....###############",
"################################################################",
"################################################################",
"################################################################",
"################################################################",
"################################################################",
"################################################################"
};
