/* XPM */
static char *result[] = {
/* columns rows colors chars-per-pixel */
"64 64 7 1 ",
"  c gray5",
". c #353535",
"X c #505050",
"o c #EEB2B2",
"O c #E4E4E4",
"+ c white",
"@ c None",
/* pixels */
"@@@@@@@@@@@@@@@@@@@@@@@@@@@@@@@@@@@@@@@@@@@@@@@@@@@@@@@@@@@@@@@@",
"@@@@@@@@@@@@@@@@@@@@@@@@@@@@@@@@@@@@@@@@@@@@@@@@@@@@@@@@@@@@@@@@",
"@@@@@@@@@@@@@@@@@@@@@@@@@@@@@@@@@@@@@@@@@@@@@@@@@@@@@@@@@@@@@@@@",
"@@@@@@@@@@@@@@@@@@@@@@@@@@@@@@@@@@@@@@  @@@@@@@@@@@@@@@@@@@@@@@@",
"@@@@@@@@@@@@@@@@@@@@@@@@@@@@@@@@@@@@@    @@@@@@@@@@@@@@@@@@@@@@@",
"@@@@@@@@@@@@@@@@@@@@@@@@@@@@@@@@@@@@      @@@@@@@@@@@@@@@@@@@@@@",
"@@@@@@@@@@@@@@@@@@@@@@@@@@@@@@@@@@@        @@@@@@@@@@@@@@@@@@@@@",
"@@@@@@@@@@@@@@@@@@@@@@@@@@@@@@@@@@          @@@@@@@@@@@@@@@@@@@@",
"@@@@@@@@@@@@@@@@@@@@@@@@@@@@@@@@@            @@@@@@@@@@@@@@@@@@@",
"@@@@@@@@@@@@@@@@@@@@@@@@@@@@@@@@      oo      @@@@@@@@@@@@@@@@@@",
"@@@@@@@@@@@@@@@@@@@@@@@@@@@@@@@      oooo      @@@@@@@@@@@@@@@@@",
"@@@@@@@@@@@@@@@@@@@@@@@@@@@@@@      oooooo      @@@@@@@@@@@@@@@@",
"@@@@@@@@@@@@@@@@@@@@@@@@@@@@@@     oooooooo     @@@@@@@@@@@@@@@@",
"@@@@@@@@@@@@@@@@@@@@@@@@@@@@@     oooooooooo     @@@@@@@@@@@@@@@",
"@@@@@@@@@@@@@@@@@@@@@@@@@@@@@    oooooXXooooo    @@@@@@@@@@@@@@@",
"@@@@@@@@@@@@@@@@@@@@@@@@@@@@@    ooooXXXXoooo    @@@@@@@@@@@@@@@",
"@@@@@@@@@@@@@@@@@@@@@@@@@@@@@    oooXXXXXXooo    @@@@@@@@@@@@@@@",
"@@@@@@@@@@@@@@@@@@@@@@@@@@@@@    oooXXXXXXooo    @@@@@@@@@@@@@@@",
"@@@@@@@@@@@@@@@@@@@@@@@@@@@       ooXXXXXXoo       @@@@@@@@@@@@@",
"@@@@@@@@@@@@@@@@@@@@@@@@@@   +O    ooX  Xoo    ++   @@@@@@@@@@@@",
"@@@@@@@@@@@@@@@@@@@@@@@@@@  +++O              ++++  @@@@@@@@@@@@",
"@@@@@@@@@@@@@@@@@@@@@@@@  O+++++O    +  +    +++++++ @@@@@@@@@@@",
"@@@@@@@@@@@@@@@@@@@@@@@@ O+++++++++++    ++++++++++++ @@@@@@@@@@",
"@@@@@@@@@@@@@@@@@@@@@@@@ O+++++++++++++++++++++ ++++++ @@@@@@@@@",
"@@@@@@@@@@@@@@@@@@@@@@@@ O++++++++++++++++++++ + +++++ @@@@@@@@@",
"@@@@@@@@@@@@@@@@@@@@@@@@ O+++++++++++++++++++ +++ +OO++ @@@@@@@@",
"@@@@@@@@@@@@@@@@@@@@@@@@ O ++++++++++++++++++     + O++ @@@@@@@@",
"@@@@@@@@@@@@@@@@@@@@@@@@ O OO++++++++++++++++ +++ +  O++ @@@@@@@",
"@@@@@@@@@@@@@@@@@@@@@@@@ O OO++++++++++++++++ +++ +  O++ @@@@@@@",
"@@@@@@@@@@@@@@@@@@@@@@@@ O OO++++++++++++++++++++++  O++ @@@@@@@",
"@@@@@@@@@@    @@@@@@@@@@ O OO++++++++++++++++++++++  O++ @@@@@@@",
"@@@@@@@@@      @@@@@@@@@ O OO+++++++++  +++++++++++  O++ @@@@@@@",
"@@@@@@@@        @@@@@@@@ O OO++++++++    ++++++++++  O++ @@@@@@@",
"@@@@@@@          @@@@@@@ O OO+++++++      +++++++++  O++ @@@@@@@",
"@@@@@@            @@@@@ O+ OO++++++        +++++++  O+++ @@@@@@@",
"@@@@@             @@@@ O++ OO+++++          +++++ O++++ @@@@@@@@",
"@@@@              @@@    + OO++++            ++    +++  @@@@@@@@",
"@@@                        OO+++                    + @  @@@@@@@",
"@@            ......      ....................      ..    @@@@@@",
"@@            ......      ....................      ..    @@@@@@",
"@@@                        OOOOO                          @@@@@@",
"@@@@              @@@    @ OO++++            ++     @@@  @@@@@@@",
"@@@@@             @@@@@@@@ OO+++++          +++++++ @@@@@@@@@@@@",
"@@@@@@            @@@@@@@@ OO++++++  +  +  ++++++++ @@@@@@@@@@@@",
"@@@@@@@          @@@@@@@@@ OO+++++++++  +++++++++++ @@@@@@@@@@@@",
"@@@@@@@@        @@@@@@@@@@ OO+++++++++  +++++++++++ @@@@@@@@@@@@",
"@@@@@@@@@      @@@@@@@@@@@ OO+ ++++++++++++++++++++ @@@@@@@@@@@@",
"@@@@@@@@@@    @@@@@@@@@@@@ OO + +++++++++++++++++++ @@@@@@@@@@@@",
"@@@@@@@@@@@@@@@@@@@@@@@@@@ O +++ ++++++++++++++++++ @@@@@@@@@@@@",
"@@@@@@@@@@@@@@@@@@@@@@@@@@ O     ++++++++++++++++++ @@@@@@@@@@@@",
"@@@@@@@@@@@@@@@@@@@@@@@@@@ O +++ ++++++++++++++++++ @@@@@@@@@@@@",
"@@@@@@@@@@@@@@@@@@@@@@@@@@ O +++ ++++++++++++++++++ @@@@@@@@@@@@",
"@@@@@@@@@@@@@@@@@@@@@@@@@@ OO++++++++++++++++++++++ @@@@@@@@@@@@",
"@@@@@@@@@@@@@@@@@@@@@@@@@@ OO++++++++++++++++++++++ @@@@@@@@@@@@",
"@@@@@@@@@@@@@@@@@@@@@@@@@@ OO++++++++++++++++O  +++ @@@@@@@@@@@@",
"@@@@@@@@@@@@@@@@@@@@@@@@@@ OOO  ++++++++++++O    ++ @@@@@@@@@@@@",
"@@@@@@@@@@@@@@@@@@@@@@@@@@@                        @@@@@@@@@@@@@",
"@@@@@@@@@@@@@@@@@@@@@@@@@@@@@    @@@@@@@@@@@@@@@@@@@@@@@@@@@@@@@",
"@@@@@@@@@@@@@@@@@@@@@@@@@@@@@@@@@@@@@@@@@@@@@@@@@@@@@@@@@@@@@@@@",
"@@@@@@@@@@@@@@@@@@@@@@@@@@@@@@@@@@@@@@@@@@@@@@@@@@@@@@@@@@@@@@@@",
"@@@@@@@@@@@@@@@@@@@@@@@@@@@@@@@@@@@@@@@@@@@@@@@@@@@@@@@@@@@@@@@@",
"@@@@@@@@@@@@@@@@@@@@@@@@@@@@@@@@@@@@@@@@@@@@@@@@@@@@@@@@@@@@@@@@",
"@@@@@@@@@@@@@@@@@@@@@@@@@@@@@@@@@@@@@@@@@@@@@@@@@@@@@@@@@@@@@@@@",
"@@@@@@@@@@@@@@@@@@@@@@@@@@@@@@@@@@@@@@@@@@@@@@@@@@@@@@@@@@@@@@@@"
};
