/* XPM */
static char *result[] = {
/* columns rows colors chars-per-pixel */
"64 64 3 1 ",
"  c black",
". c white",
"X c None",
/* pixels */
"XXXXXXXXXXXXXXXXXXXXXXXXXXXXXXXXXXXXXXXXXXXXXXXXXXXXXXXXXXXXXXXX",
"XXXXXXXXXXXXXXXXXXXXXXXXXXXXXXXXXXXXXXXXXXXXXXXXXXXXXXXXXXXXXXXX",
"XXXXXXXXXXXXXXXXXXXXXXXXXXXXXXXXXXXXXXXXXXXXXXXXXXXXXXXXXXXXXXXX",
"XXXXXXXXXXXXXXXXXXXXXXXXXXXXXXXXXXXXXXXXXXXXXXXXXXXXXXXXXXXXXXXX",
"XXXXXXXXXXXXXXXXXXXXXXXXXXXXXXXXXXXXXXXXXXXXXXXXXXXXXXXXXXXXXXXX",
"XXXXXXXXXXXXXXXXXXXXXXXXXXXXXXXXXXXXXXXXXXXXXXXXXXXXXXXXXXXXXXXX",
"XXXXXXXXXXXXXXXXXXXXXXXXXXXXXXXXXXXXXXXXXXXXXXXXXXXXXXXXXXXXXXXX",
"XXXXXXXXXXXXXXXXXXXXXXXXXXXXXXXXXXXXXXXXXXXXXXXXXXXXXXXXXXXXXXXX",
"XXXXXXXXXXXXXXXX    XXXX    XXXXXXXXXXXXXXXXXXXXXXXXXXXXXXXXXXXX",
"XXXXXXXXXXXXXXXX    XXXX    XXXXXXXXXXXXXXXXXXXXXXXXXXXXXXXXXXXX",
"XXXXXXXXXXXXXXXX    XXXX    XXXXXXXXXXXXXXXXXXXXXXXXXXXXXXXXXXXX",
"XXXXXXXXXXXXXXXX    XXXX    XXXXXXXXXXXXXXXXXXXXXXXXXXXXXXXXXXXX",
"XXXXXXXXXXXX    ....    ....    XXXXXXXXXXXXXXXXXXXXXXXXXXXXXXXX",
"XXXXXXXXXXXX    ....    ....    XXXXXXXXXXXXXXXXXXXXXXXXXXXXXXXX",
"XXXXXXXXXXXX    ....    ....    XXXXXXXXXXXXXXXXXXXXXXXXXXXXXXXX",
"XXXXXXXXXXXX    ....    ....    XXXXXXXXXXXXXXXXXXXXXXXXXXXXXXXX",
"XXXXXXXXXXXX    ....    ....    XXXXXXXXXXXXXXXXXXXXXXXXXXXXXXXX",
"XXXXXXXXXXXX    ....    ....    XXXXXXXXXXXXXXXXXXXXXXXXXXXXXXXX",
"XXXXXXXXXXXX    ....    ....    XXXXXXXXXXXXXXXXXXXXXXXXXXXXXXXX",
"XXXXXXXXXXXX    ....    ....    XXXXXXXXXXXXXXXXXXXXXXXXXXXXXXXX",
"XXXXXXXXXXXX    ....    ....    XXXXXXXXXXXXXXXXXXXXXXXXXXXXXXXX",
"XXXXXXXXXXXX    ....    ....    XXXXXXXXXXXXXXXXXXXXXXXXXXXXXXXX",
"XXXXXXXXXXXX    ....    ....    XXXXXXXXXXXXXXXXXXXXXXXXXXXXXXXX",
"XXXXXXXXXXXX    ....    ....    XXXXXXXXXXXXXXXXXXXXXXXXXXXXXXXX",
"XXXXXXXX    ................    XXXXXXXXXXXXXXXXXXXXXXXXXXXXXXXX",
"XXXXXXXX    ................    XXXXXXXXXXXXXXXXXXXXXXXXXXXXXXXX",
"XXXXXXXX    ................    XXXXXXXXXXXXXXXXXXXXXXXXXXXXXXXX",
"XXXXXXXX    ................    XXXXXXXXXXXXXXXXXXXXXXXXXXXXXXXX",
"XXXX    ........................    XXXXXXXXXXXXXXXXXXXXXXXXXXXX",
"XXXX    ........................    XXXXXXXXXXXXXXXXXXXXXXXXXXXX",
"XXXX    ........................    XXXXXXXXXXXXXXXXXXXXXXXXXXXX",
"XXXX    ........................    XXXXXXXXXXXXXXXXXXXXXXXXXXXX",
"XXXX    ........    ................    XXXXXXXXXXXXXXXXXXXXXXXX",
"XXXX    ........    ................    XXXXXXXXXXXXXXXXXXXXXXXX",
"XXXX    ........    ................    XXXXXXXXXXXXXXXXXXXXXXXX",
"XXXX    ........    ................    XXXXXXXXXXXXXXXXXXXXXXXX",
"XXXX    ........    ................        XXXX    XXXXXXXXXXXX",
"XXXX    ........    ................        XXXX    XXXXXXXXXXXX",
"XXXX    ........    ................        XXXX    XXXXXXXXXXXX",
"XXXX    ........    ................        XXXX    XXXXXXXXXXXX",
"XXXX    ....................................    ....    XXXXXXXX",
"XXXX    ....................................    ....    XXXXXXXX",
"XXXX    ....................................    ....    XXXXXXXX",
"XXXX    ....................................    ....    XXXXXXXX",
"XXXXXXXX            ............................    XXXXXXXXXXXX",
"XXXXXXXX            ............................    XXXXXXXXXXXX",
"XXXXXXXX            ............................    XXXXXXXXXXXX",
"XXXXXXXX            ............................    XXXXXXXXXXXX",
"XXXXXXXXXXXX    ........    ....................    XXXXXXXXXXXX",
"XXXXXXXXXXXX    ........    ....................    XXXXXXXXXXXX",
"XXXXXXXXXXXX    ........    ....................    XXXXXXXXXXXX",
"XXXXXXXXXXXX    ........    ....................    XXXXXXXXXXXX",
"XXXXXXXXXXXXXXXX        XXXX    ................    XXXXXXXXXXXX",
"XXXXXXXXXXXXXXXX        XXXX    ................    XXXXXXXXXXXX",
"XXXXXXXXXXXXXXXX        XXXX    ................    XXXXXXXXXXXX",
"XXXXXXXXXXXXXXXX        XXXX    ................    XXXXXXXXXXXX",
"XXXXXXXXXXXXXXXXXXXXXXXX    ................    XXXXXXXXXXXXXXXX",
"XXXXXXXXXXXXXXXXXXXXXXXX    ................    XXXXXXXXXXXXXXXX",
"XXXXXXXXXXXXXXXXXXXXXXXX    ................    XXXXXXXXXXXXXXXX",
"XXXXXXXXXXXXXXXXXXXXXXXX    ................    XXXXXXXXXXXXXXXX",
"XXXXXXXXXXXXXXXXXXXXXXXX                    XXXXXXXXXXXXXXXXXXXX",
"XXXXXXXXXXXXXXXXXXXXXXXX                    XXXXXXXXXXXXXXXXXXXX",
"XXXXXXXXXXXXXXXXXXXXXXXX                    XXXXXXXXXXXXXXXXXXXX",
"XXXXXXXXXXXXXXXXXXXXXXXX                    XXXXXXXXXXXXXXXXXXXX"
};
