/* XPM */
static char *result[] = {
/* columns rows colors chars-per-pixel */
"16 16 3 1 ",
"  c black",
". c white",
"X c None",
/* pixels */
"XXXXXXXXXXXXXXXX",
"XXXXXXXXXXXXXXXX",
"XXXXXXXXXXXXXXXX",
"XXXXXXXXXXXXXXXX",
"XXXXX X XXXXXXXX",
"XXXX . . XXXXXXX",
"XXXX . . XXXXXXX",
"XXXX . . XXXXXXX",
"XXX .... XXXXXXX",
"XX ......   X XX",
"XX .. ...... . X",
"XX .. ....... XX",
"XX .......... XX",
"XXX   ...  .. XX",
"XXXX ..  ... XXX",
"XXXX   X    XXXX"
};
