/* XPM */
static char *result[] = {
/* columns rows colors chars-per-pixel */
"64 64 3 1 ",
"  c black",
". c white",
"X c None",
/* pixels */
"XXXXXXXXXXXXXXXXXXXXXXXXXXXXXXXXXXXXXXXXXXXXXXXXXXXXXXXXXXXXXXXX",
"XXXXXXXXXXXXXXXXXXXXXXXXXXXXXXXXXXXXXXXXXXXXXXXXXXXXXXXXXXXXXXXX",
"XXXXXXXXXXXXXXXXXXXXXXXXXXXXXXXXXXXXXXXXXXXXXXXXXXXXXXXXXXXXXXXX",
"XXXXXXXXXXXXXXXXXXXXXXXXXXXXXXXXXXXXXXXXXXXXXXXXXXXXXXXXXXXXXXXX",
"XXXXXXXXXXXXXXXXXXXXXXXXXXXXXXXXXXXXXXXXXXXXXXXXXXXXXXXXXXXXXXXX",
"XXXXXXXXXXXXXXXXXXXXXXXXXXXXXXXXXXXXXXXXXXXXXXXXXXXXXXXXXXXXXXXX",
"XXXXXXXXXXXXXXXXXXXXXXXXXXXXXXXXXXXXXXXXXXXXXXXXXXXXXXXXXXXXXXXX",
"XXXXXXXXXXXXXXXXXXXXXXXXXXXXXXXXXXXXXXXXXXXXXXXXXXXXXXXXXXXXXXXX",
"XXXXXXXXXXXXXXXXXXXXXXXXXXXXXXXXXXXXXXXXXXXXXXXXXXXXXXXXXXXXXXXX",
"XXXXXXXXXXXXXXXXXXXXXXXXXXXXXXXXXXXXXXXXXXXXXXXXXXXXXXXXXXXXXXXX",
"XXXXXXXXXXXXXXXXXXXXXXXXXXXXXXXXXXXXXXXXXXXXXXXXXXXXXXXXXXXXXXXX",
"XXXXXXXXXXXXXXXXXXXXXXXXXXXXXXXXXXXXXXXXXXXXXXXXXXXXXXXXXXXXXXXX",
"XXXXXXXXXXXXXXXXXXXXXXXXXXXXXXXXXXXXXXXXXXXXXXXXXXXXXXXXXXXXXXXX",
"XXXXXXXXXXXXXXXXXXXXXXXXXXXXXXXXXXXXXXXXXXXXXXXXXXXXXXXXXXXXXXXX",
"XXXXXXXXXXXXXXXXXXXXXXXXXXXXXXXXXXXXXXXXXXXXXXXXXXXXXXXXXXXXXXXX",
"XXXXXXXXXXXXXXXXXXXXXXXXXXXXXXXXXXXXXXXXXXXXXXXXXXXXXXXXXXXXXXXX",
"XXXXXXXXXXXXXXXXXXXX    XXXX    XXXXXXXXXXXXXXXXXXXXXXXXXXXXXXXX",
"XXXXXXXXXXXXXXXXXXXX    XXXX    XXXXXXXXXXXXXXXXXXXXXXXXXXXXXXXX",
"XXXXXXXXXXXXXXXXXXXX    XXXX    XXXXXXXXXXXXXXXXXXXXXXXXXXXXXXXX",
"XXXXXXXXXXXXXXXXXXXX    XXXX    XXXXXXXXXXXXXXXXXXXXXXXXXXXXXXXX",
"XXXXXXXXXXXXXXXX    ....    ....    XXXXXXXXXXXXXXXXXXXXXXXXXXXX",
"XXXXXXXXXXXXXXXX    ....    ....    XXXXXXXXXXXXXXXXXXXXXXXXXXXX",
"XXXXXXXXXXXXXXXX    ....    ....    XXXXXXXXXXXXXXXXXXXXXXXXXXXX",
"XXXXXXXXXXXXXXXX    ....    ....    XXXXXXXXXXXXXXXXXXXXXXXXXXXX",
"XXXXXXXXXXXXXXXX    ....    ....    XXXXXXXXXXXXXXXXXXXXXXXXXXXX",
"XXXXXXXXXXXXXXXX    ....    ....    XXXXXXXXXXXXXXXXXXXXXXXXXXXX",
"XXXXXXXXXXXXXXXX    ....    ....    XXXXXXXXXXXXXXXXXXXXXXXXXXXX",
"XXXXXXXXXXXXXXXX    ....    ....    XXXXXXXXXXXXXXXXXXXXXXXXXXXX",
"XXXXXXXXXXXXXXXX    ....    ....    XXXXXXXXXXXXXXXXXXXXXXXXXXXX",
"XXXXXXXXXXXXXXXX    ....    ....    XXXXXXXXXXXXXXXXXXXXXXXXXXXX",
"XXXXXXXXXXXXXXXX    ....    ....    XXXXXXXXXXXXXXXXXXXXXXXXXXXX",
"XXXXXXXXXXXXXXXX    ....    ....    XXXXXXXXXXXXXXXXXXXXXXXXXXXX",
"XXXXXXXXXXXX    ................    XXXXXXXXXXXXXXXXXXXXXXXXXXXX",
"XXXXXXXXXXXX    ................    XXXXXXXXXXXXXXXXXXXXXXXXXXXX",
"XXXXXXXXXXXX    ................    XXXXXXXXXXXXXXXXXXXXXXXXXXXX",
"XXXXXXXXXXXX    ................    XXXXXXXXXXXXXXXXXXXXXXXXXXXX",
"XXXXXXXX    ........................            XXXX    XXXXXXXX",
"XXXXXXXX    ........................            XXXX    XXXXXXXX",
"XXXXXXXX    ........................            XXXX    XXXXXXXX",
"XXXXXXXX    ........................            XXXX    XXXXXXXX",
"XXXXXXXX    ........    ........................    ....    XXXX",
"XXXXXXXX    ........    ........................    ....    XXXX",
"XXXXXXXX    ........    ........................    ....    XXXX",
"XXXXXXXX    ........    ........................    ....    XXXX",
"XXXXXXXX    ........    ............................    XXXXXXXX",
"XXXXXXXX    ........    ............................    XXXXXXXX",
"XXXXXXXX    ........    ............................    XXXXXXXX",
"XXXXXXXX    ........    ............................    XXXXXXXX",
"XXXXXXXX    ........................................    XXXXXXXX",
"XXXXXXXX    ........................................    XXXXXXXX",
"XXXXXXXX    ........................................    XXXXXXXX",
"XXXXXXXX    ........................................    XXXXXXXX",
"XXXXXXXXXXXX            ............        ........    XXXXXXXX",
"XXXXXXXXXXXX            ............        ........    XXXXXXXX",
"XXXXXXXXXXXX            ............        ........    XXXXXXXX",
"XXXXXXXXXXXX            ............        ........    XXXXXXXX",
"XXXXXXXXXXXXXXXX    ........        ............    XXXXXXXXXXXX",
"XXXXXXXXXXXXXXXX    ........        ............    XXXXXXXXXXXX",
"XXXXXXXXXXXXXXXX    ........        ............    XXXXXXXXXXXX",
"XXXXXXXXXXXXXXXX    ........        ............    XXXXXXXXXXXX",
"XXXXXXXXXXXXXXXX            XXXX                XXXXXXXXXXXXXXXX",
"XXXXXXXXXXXXXXXX            XXXX                XXXXXXXXXXXXXXXX",
"XXXXXXXXXXXXXXXX            XXXX                XXXXXXXXXXXXXXXX",
"XXXXXXXXXXXXXXXX            XXXX                XXXXXXXXXXXXXXXX"
};
