/* XPM */
static char *result[] = {
/* columns rows colors chars-per-pixel */
"16 16 3 1 ",
"  c black",
". c white",
"X c None",
/* pixels */
"XXXXXXX X XXXXXX",
"XXXXXX . . XXXXX",
"XXXXXX . . XXXXX",
"XXXXXX . . XXXXX",
"XXXXX .... XXXXX",
"XXXX ...... XXXX",
"XXXX .. ... XXXX",
"XXXX .. ...  XXX",
"XXXX ....... XXX",
"XXXXX   .... XXX",
"XXXXX ...... XXX",
"XXXXXX  ....  XX",
"XXXXXXX .... . X",
"XXXXXXX ....  XX",
"XXXXXX .... XXXX",
"XXXXXX     XXXXX"
};
