/* XPM */
static char *result[] = {
/* columns rows colors chars-per-pixel */
"16 16 3 1 ",
"  c black",
". c white",
"X c None",
/* pixels */
"XXXXXXXXXXXXXXXX",
"XXXXXXXXXXXXXXXX",
"XXXX X XXXXXXXXX",
"XXX . . XXXXXXXX",
"XXX . . XXXXXXXX",
"XXX . . XXXXXXXX",
"XX .... XXXXXXXX",
"X ...... XXXXXXX",
"X .. .... XXXXXX",
"X .. ....  X XXX",
"X ......... . XX",
"XX   ....... XXX",
"XXX .. ..... XXX",
"XXXX  X .... XXX",
"XXXXXX .... XXXX",
"XXXXXX     XXXXX"
};
