/* XPM */
static char *result[] = {
/* columns rows colors chars-per-pixel */
"64 64 3 1 ",
"  c black",
". c white",
"X c None",
/* pixels */
"XXXXXXXXXXXXXXXXXXXXXXXXXXXX    XXXX    XXXXXXXXXXXXXXXXXXXXXXXX",
"XXXXXXXXXXXXXXXXXXXXXXXXXXXX    XXXX    XXXXXXXXXXXXXXXXXXXXXXXX",
"XXXXXXXXXXXXXXXXXXXXXXXXXXXX    XXXX    XXXXXXXXXXXXXXXXXXXXXXXX",
"XXXXXXXXXXXXXXXXXXXXXXXXXXXX    XXXX    XXXXXXXXXXXXXXXXXXXXXXXX",
"XXXXXXXXXXXXXXXXXXXXXXXX    ....    ....    XXXXXXXXXXXXXXXXXXXX",
"XXXXXXXXXXXXXXXXXXXXXXXX    ....    ....    XXXXXXXXXXXXXXXXXXXX",
"XXXXXXXXXXXXXXXXXXXXXXXX    ....    ....    XXXXXXXXXXXXXXXXXXXX",
"XXXXXXXXXXXXXXXXXXXXXXXX    ....    ....    XXXXXXXXXXXXXXXXXXXX",
"XXXXXXXXXXXXXXXXXXXXXXXX    ....    ....    XXXXXXXXXXXXXXXXXXXX",
"XXXXXXXXXXXXXXXXXXXXXXXX    ....    ....    XXXXXXXXXXXXXXXXXXXX",
"XXXXXXXXXXXXXXXXXXXXXXXX    ....    ....    XXXXXXXXXXXXXXXXXXXX",
"XXXXXXXXXXXXXXXXXXXXXXXX    ....    ....    XXXXXXXXXXXXXXXXXXXX",
"XXXXXXXXXXXXXXXXXXXXXXXX    ....    ....    XXXXXXXXXXXXXXXXXXXX",
"XXXXXXXXXXXXXXXXXXXXXXXX    ....    ....    XXXXXXXXXXXXXXXXXXXX",
"XXXXXXXXXXXXXXXXXXXXXXXX    ....    ....    XXXXXXXXXXXXXXXXXXXX",
"XXXXXXXXXXXXXXXXXXXXXXXX    ....    ....    XXXXXXXXXXXXXXXXXXXX",
"XXXXXXXXXXXXXXXXXXXX    ................    XXXXXXXXXXXXXXXXXXXX",
"XXXXXXXXXXXXXXXXXXXX    ................    XXXXXXXXXXXXXXXXXXXX",
"XXXXXXXXXXXXXXXXXXXX    ................    XXXXXXXXXXXXXXXXXXXX",
"XXXXXXXXXXXXXXXXXXXX    ................    XXXXXXXXXXXXXXXXXXXX",
"XXXXXXXXXXXXXXXX    ........................    XXXXXXXXXXXXXXXX",
"XXXXXXXXXXXXXXXX    ........................    XXXXXXXXXXXXXXXX",
"XXXXXXXXXXXXXXXX    ........................    XXXXXXXXXXXXXXXX",
"XXXXXXXXXXXXXXXX    ........................    XXXXXXXXXXXXXXXX",
"XXXXXXXXXXXXXXXX    ........    ............    XXXXXXXXXXXXXXXX",
"XXXXXXXXXXXXXXXX    ........    ............    XXXXXXXXXXXXXXXX",
"XXXXXXXXXXXXXXXX    ........    ............    XXXXXXXXXXXXXXXX",
"XXXXXXXXXXXXXXXX    ........    ............    XXXXXXXXXXXXXXXX",
"XXXXXXXXXXXXXXXX    ........    ............        XXXXXXXXXXXX",
"XXXXXXXXXXXXXXXX    ........    ............        XXXXXXXXXXXX",
"XXXXXXXXXXXXXXXX    ........    ............        XXXXXXXXXXXX",
"XXXXXXXXXXXXXXXX    ........    ............        XXXXXXXXXXXX",
"XXXXXXXXXXXXXXXX    ............................    XXXXXXXXXXXX",
"XXXXXXXXXXXXXXXX    ............................    XXXXXXXXXXXX",
"XXXXXXXXXXXXXXXX    ............................    XXXXXXXXXXXX",
"XXXXXXXXXXXXXXXX    ............................    XXXXXXXXXXXX",
"XXXXXXXXXXXXXXXXXXXX            ................    XXXXXXXXXXXX",
"XXXXXXXXXXXXXXXXXXXX            ................    XXXXXXXXXXXX",
"XXXXXXXXXXXXXXXXXXXX            ................    XXXXXXXXXXXX",
"XXXXXXXXXXXXXXXXXXXX            ................    XXXXXXXXXXXX",
"XXXXXXXXXXXXXXXXXXXX    ........................    XXXXXXXXXXXX",
"XXXXXXXXXXXXXXXXXXXX    ........................    XXXXXXXXXXXX",
"XXXXXXXXXXXXXXXXXXXX    ........................    XXXXXXXXXXXX",
"XXXXXXXXXXXXXXXXXXXX    ........................    XXXXXXXXXXXX",
"XXXXXXXXXXXXXXXXXXXXXXXX        ................        XXXXXXXX",
"XXXXXXXXXXXXXXXXXXXXXXXX        ................        XXXXXXXX",
"XXXXXXXXXXXXXXXXXXXXXXXX        ................        XXXXXXXX",
"XXXXXXXXXXXXXXXXXXXXXXXX        ................        XXXXXXXX",
"XXXXXXXXXXXXXXXXXXXXXXXXXXXX    ................    ....    XXXX",
"XXXXXXXXXXXXXXXXXXXXXXXXXXXX    ................    ....    XXXX",
"XXXXXXXXXXXXXXXXXXXXXXXXXXXX    ................    ....    XXXX",
"XXXXXXXXXXXXXXXXXXXXXXXXXXXX    ................    ....    XXXX",
"XXXXXXXXXXXXXXXXXXXXXXXXXXXX    ................        XXXXXXXX",
"XXXXXXXXXXXXXXXXXXXXXXXXXXXX    ................        XXXXXXXX",
"XXXXXXXXXXXXXXXXXXXXXXXXXXXX    ................        XXXXXXXX",
"XXXXXXXXXXXXXXXXXXXXXXXXXXXX    ................        XXXXXXXX",
"XXXXXXXXXXXXXXXXXXXXXXXX    ................    XXXXXXXXXXXXXXXX",
"XXXXXXXXXXXXXXXXXXXXXXXX    ................    XXXXXXXXXXXXXXXX",
"XXXXXXXXXXXXXXXXXXXXXXXX    ................    XXXXXXXXXXXXXXXX",
"XXXXXXXXXXXXXXXXXXXXXXXX    ................    XXXXXXXXXXXXXXXX",
"XXXXXXXXXXXXXXXXXXXXXXXX                    XXXXXXXXXXXXXXXXXXXX",
"XXXXXXXXXXXXXXXXXXXXXXXX                    XXXXXXXXXXXXXXXXXXXX",
"XXXXXXXXXXXXXXXXXXXXXXXX                    XXXXXXXXXXXXXXXXXXXX",
"XXXXXXXXXXXXXXXXXXXXXXXX                    XXXXXXXXXXXXXXXXXXXX"
};
