/* XPM */
static char *result[] = {
/* columns rows colors chars-per-pixel */
"64 64 9 1 ",
"  c #271613",
". c #311C18",
"X c #3B211C",
"o c #442621",
"O c #492923",
"+ c #4E2C26",
"@ c #532F28",
"# c #58312A",
"$ c None",
/* pixels */
"$$$$$$$$$$$$$$$$$$$$$$$$$$$$$$$$$$$$$$$$$$$$$$$$$$$$$$$$$$$$$$$$",
"$$$$$$$$$$$$$$$$$$$$$$$$$$$$$$$$$$$$$$$$$$$$$$$$$$$$$$$$$$$$$$$$",
"$$$$$$$$$$$$$$$$$$$$$$$$$$$$$$$$$$$$$$$$$$$$$$$$$$$$$$$$$$$$$$$$",
"$$$$$$$$$$$$$$$$$$$$$$$$$$$$$$$$$$$$$$$$$$$$$$$$$$$$$$$$$$$$$$$$",
"$$$$$$$$$$$$$$$$$$$$$$$$$$$$$$$$$$$$$$$$$$$$$$$$$$$$$$$$$$$$$$$$",
"$$$$$$$$$$$$$$$$$$$$$$$$$$$$$$$$$$$$$$$$$$$$$$$$$$$$$$$$$$$$$$$$",
"$$$$$$$$$$$$$$$$$$$$$$$$$$$$$$$$$$$$$$$$$$$$$$$$$$$$$$$$$$$$$$$$",
"$$$$$$$$$$$$$$$$$$$$$$$$$$$$$$$$$$$$$$$$$$$$$$$$$$$$$$$$$$$$$$$$",
"$$$$$$$$$$$$$$$$$$$$$$$$$$$$$$$$$$$$$$$$$$$$$$$$$$$$$$$$$$$$$$$$",
"$$$$$$$$$$$$$$$$$$$$$$$$$$$$$$$$$$$$$$$$$$$$$$$$$$$$$$$$$$$$$$$$",
"$$$$$$$$$$$$$$$$$$$$$$$$$$$$$$$$$$$$$$$$$$$$$$$$$$$$$$$$$$$$$$$$",
"$$$$$$$$$$$$$$$$$$$$$$$$$$$$$$$$$$$$$$$$$$$$$$$$$$$$$$$$$$$$$$$$",
"$$$$$$$$$$$$$$$$$$$$$$$$$$$$$$$$$$$$$$$$$$$$$$$$$$$$$$$$$$$$$$$$",
"$$$$$$$$$$$$$$$$$$$$$$$$$$$$$$$$$$$$$$$$$$$$$$$$$$$$$$$$$$$$$$$$",
"$$$$$$$$$$$$$$$$$$$$$$$$$$$$$$$$$$$$$$$$$$$$$$$$$$$$$$$$$$$$$$$$",
"$$$$$$$$$$$$$$$$$$$$$$$$$$$$$$$$$$$$$$$$$$$$$$$$$$$$$$$$$$$$$$$$",
"$$$$$$$$$$$$$$$$$$$$$$$$$$$$$$$$$$$$$$$$$$$$$$$$$$$$$$$$$$$$$$$$",
"$$$$$$$$$$$$$$$$$$$$$$$$$$$$$$$$$$$$$$$$$$$$$$$$$$$$$$$$$$$$$$$$",
"$$$$$$$$$$$$$$$$$$$$$$$#######$$$$$$$$$$$$$$$$$$$$$$$$$$$$$$$$$$",
"$$$$$$$$$$$$$$$$$$$###############$$$$$$$$$$$$$$$$$$$$$$$$$$$$$$",
"$$$$$$$$$$$$$$$$############################$$$$$$$$$$$$$$$$$$$$",
"$$$$$$$$$$$$$$$$##############################$$$$$$$$$$$$$$$$$$",
"$$$$$$$$$$$$$$$##################################$$$$$$$$$$$$$$$",
"$$$$$$$$$$$$$#######################################$$$$$$$$$$$$",
"$$$$$$$$$$$$#########################################$$$$$$$$$$$",
"$$$$$$$$$$$############@@@@@@@@@@@@@#################$$$$$$$$$$$",
"$$$$$$$$$$##########@@@@@@@@@@@@@@@@@@@@@#############$$$$$$$$$$",
"$$$$$$$$##########@@@@@@@@@@@@@@@@@@@@@@@@@@@##########$$$$$$$$$",
"$$$$$$$#########@@@@@@@@@@@@@@@@@@@@@@@@@@@@@@@##########$$$$$$$",
"$$$$$$#########@@@@@@@@@@@@@@@@@@@@@@@@@@@@@@@@@@@########$$$$$$",
"$$$$$#########@@@@@@@@@@@@@@@@@@@@@@@@@@@@@@@@@@@@@########$$$$$",
"$$$$########@@@@@@@@++++++@@@@@@@@@@@@@@@@@@@@@@@@@@@#######$$$$",
"$$$########@@@@@@@++++++++++++++++++++@@@@@@@@@@@@@@@@#######$$$",
"$$$#######@@@@@@@+++++++++++++++++oooooo++++@@@@@@@@@@@@@@@###$$",
"$#######@@@@@@@+++++++++++++++++ooooooooooooo++++@@@@@@@@@@@@#$$",
"######@@@@@@@@+++++++++++++++oooooooooooooooooooo++++@@@@@@@@@$$",
"#####@@@@@@@@++++++++++++++ooooooooooooooooooooooooooo+@@@@@@@@+",
"####@@@@@@@@++++++++++++oooooooooooooooooooooooooooooooo@@@@@@@@",
"####@@@@@@@+++++++++++oooooooooooooooooooooooooooooooooooo@@@@@@",
"###@@@@@@@++++++++ooooooooooooooooooooooooooooooooooooooooo@@@@@",
"###@@@@@@+++++++oooooooooooooooooooooXXXXXXoooooooooooooooooo@@@",
"###@@@@@+++++++ooooooooooooooooXXXXXXXXXXXXXXXXooooooooooooooo@@",
"##@@@@@++++++ooooooooooooooooXXXXXXXXXXXXXXXXXXXXooooooooooooo@@",
"##@@@@++++++ooooooooooooooXXXXXXXXXXXXXXXXXXXXXXXXXXoooooooooo+@",
"##@@@++++++ooooooooooooXXXXXXXXXXXXXXXXXXXXXXXXXXXXXXXXoooooo$$$",
"$#@@@+++++oooooooooooXXXXXXXXXXXXXXXXXXXXXXXXXXXXXXXXXXXoooo$$$$",
"$$@@@+++++oooooooooOXXXXXXXXXXXXXXXXXXXX..........XXXXXXXooo$$$$",
"$$@@@++++oooooooooXXXXXXXXXXXXXXXXXX..................XXXXoo$$$$",
"$$$@@+++oooooooooXXXXXXXXXXXXXXX............      ......XXo$$$$$",
"$$$$$@++ooooooooXXXXXXXXXXXXX............              ..o$$$$$$",
"$$$$$$$+oooooooXXXXXXXXXXX.............                 .$$$$$$$",
"$$$$$$$$+oooooXXXXXXXXXXX.............                  .$$$$$$$",
"$$$$$$$$$+OOXXXXXXXXXXXX.............                  .$$$$$$$$",
"$$$$$$$$$$$+XXXXXXXXXXX.............                  $$$$$$$$$$",
"$$$$$$$$$$$$XXXXXXXXXXX.............                $$$$$$$$$$$$",
"$$$$$$$$$$$$#XXXXXXXXXX.............                $$$$$$$$$$$$",
"$$$$$$$$$$$$$$$$XXXXXXXX.............         $$$$$$$$$$$$$$$$$$",
"$$$$$$$$$$$$$$$$$$$$$$$$$$$$$$$$$$$$$$$$$$$$$$$$$$$$$$$$$$$$$$$$",
"$$$$$$$$$$$$$$$$$$$$$$$$$$$$$$$$$$$$$$$$$$$$$$$$$$$$$$$$$$$$$$$$",
"$$$$$$$$$$$$$$$$$$$$$$$$$$$$$$$$$$$$$$$$$$$$$$$$$$$$$$$$$$$$$$$$",
"$$$$$$$$$$$$$$$$$$$$$$$$$$$$$$$$$$$$$$$$$$$$$$$$$$$$$$$$$$$$$$$$",
"$$$$$$$$$$$$$$$$$$$$$$$$$$$$$$$$$$$$$$$$$$$$$$$$$$$$$$$$$$$$$$$$",
"$$$$$$$$$$$$$$$$$$$$$$$$$$$$$$$$$$$$$$$$$$$$$$$$$$$$$$$$$$$$$$$$",
"$$$$$$$$$$$$$$$$$$$$$$$$$$$$$$$$$$$$$$$$$$$$$$$$$$$$$$$$$$$$$$$$"
};
