/* XPM */
static char *result[] = {
/* columns rows colors chars-per-pixel */
"64 64 4 1 ",
"  c #58312A",
". c #663931",
"X c #6B4038",
"o c None",
/* pixels */
"oooooooooooooooooooooooooooooooooooooooooooooooooooooooooooooooo",
"oooooooooooooooooooooooooooooooooooooooooooooooooooooooooooooooo",
"oooooooooooooooooooooooooooooooooooooooooooooooooooooooooooooooo",
"oooooooooooooooooooooooooooooooooooooooooooooooooooooooooooooooo",
"oooooooooooooooooooooooooooooooooooooooooooooooooooooooooooooooo",
"oooooooooooooooooooooooooooooooooooooooooooooooooooooooooooooooo",
"oooooooooooooooooooooooooooooooooooooooooooooooooooooooooooooooo",
"oooooooooooooooooooooooooooooooooooooooooooooooooooooooooooooooo",
"oooooooooooooooooooooooooooooooooooooooooooooooooooooooooooooooo",
"oooooooooooooooooooooooooooooooooooooooooooooooooooooooooooooooo",
"oooooooooooooooooooooooooooooooooooooooooooooooooooooooooooooooo",
"oooooooooooooooooooooooooooooooooooooooooooooooooooooooooooooooo",
"oooooooooooooooooooooooooooooooooooooooooooooooooooooooooooooooo",
"oooooooooooooooooooooooooooooooooooooooooooooooooooooooooooooooo",
"oooooooooooooooooooooooooooooooooooooooooooooooooooooooooooooooo",
"oooooooooooooooooooooooooooooooooooooooooooooooooooooooooooooooo",
"oooooooooooooooooooooooooooooooooooooooooooooooooooooooooooooooo",
"oooooooooooooooooooooooooooooooooooooooooooooooooooooooooooooooo",
"ooooooooooooooooooooooo       oooooooooooooooooooooooooooooooooo",
"ooooooooooooooooooo               oooooooooooooooooooooooooooooo",
"oooooooooooooooo                            oooooooooooooooooooo",
"oooooooooooooooo                              oooooooooooooooooo",
"ooooooooooooooo                                  ooooooooooooooo",
"ooooooooooooo           ...                         oooooooooooo",
"oooooooooooo           ..................            ooooooooooo",
"ooooooooooo          ......................          ooooooooooo",
"oooooooooo          ...........................       oooooooooo",
"oooooooo          .......XXXXXXXX...............       ooooooooo",
"ooooooo          ......XXXXXXXXXXXXXX............        ooooooo",
"oooooo          ......XXXXXXXXXXXXXXXX............        oooooo",
"ooooo         .......XXXXXXXXXXXXXXXXXX............        ooooo",
"oooo         .......XXXXXXXXXXXXXXXXXXX............         oooo",
"ooo          ......XXXXXXXXXXXXXXXXXXXXX............         ooo",
"ooo         ......XXXXXXXXXXXXXXXXXXXXXX............          oo",
"o          ......XXXXXXXXXXXXXXXXXXXXXXXX............         oo",
"          ......XXXXXXXXXXXXXXXXXXXXXXXXX.............        oo",
"         ......XXXXXXXXXXXXXXXXXXXXXXXXXX.............          ",
"        ......XXXXXXXXXXXXXXXXXXXXXXXXXXX.............          ",
"        ......XXXXXXXXXXXXXXXXXXXXXXXXXXX.............          ",
"       .......XXXXXXXXXXXXXXXXXXXXXXXXXXX.............          ",
"       .......XXXXXXXXXXXXXXXXXXXXXXXXXXX.............          ",
"       .......XXXXXXXXXXXXXXXXXXXXXXXXXXX............           ",
"       .......XXXXXXXXXXXXXXXXXXXXXXXXXXX............           ",
"        .......XXXXXXXXXXXXXXXXXXXXXXXXXX...........            ",
"           ....XXXXXXXXXXXXXXXXXXXXXXXXX............         ooo",
"o          ....XXXXXXXXXXXXXXXXXXXXXXXXX...........         oooo",
"oo          ....XXXXXXXXXXXXXXXXXXXXXXX...........          oooo",
"ooo           ......XXXXXXXXXXXXXXX..............           oooo",
"oooo           .........XXXXXXXXXX..............           ooooo",
"oooooo                ........................            oooooo",
"ooooooo                ......................            ooooooo",
"oooooooo                    .............                ooooooo",
"ooooooooo                                               oooooooo",
"ooooooooooo                                           oooooooooo",
"oooooooooooo                                        oooooooooooo",
"oooooooooooo                                        oooooooooooo",
"ooooooooooooooooooo                           oooooooooooooooooo",
"oooooooooooooooooooooooooooooooooooooooooooooooooooooooooooooooo",
"oooooooooooooooooooooooooooooooooooooooooooooooooooooooooooooooo",
"oooooooooooooooooooooooooooooooooooooooooooooooooooooooooooooooo",
"oooooooooooooooooooooooooooooooooooooooooooooooooooooooooooooooo",
"oooooooooooooooooooooooooooooooooooooooooooooooooooooooooooooooo",
"oooooooooooooooooooooooooooooooooooooooooooooooooooooooooooooooo",
"oooooooooooooooooooooooooooooooooooooooooooooooooooooooooooooooo"
};
