/* XPM */
static char *result[] = {
/* columns rows colors chars-per-pixel */
"16 16 9 1 ",
"  c black",
". c #140B0A",
"X c #1E110E",
"o c #271613",
"O c #311C18",
"+ c #3B211C",
"@ c #442621",
"# c #58312A",
"$ c None",
/* pixels */
"$$$$$$$$$$$$$$$$",
"$$$$$$$$$$$$$$$$",
"$$$$$$$$$$$$$$$$",
"$$$$$$$$$$$$$$$$",
"$$$$$$$$$$$$$$$$",
"$$$$#######$$$$$",
"$$$##########$$$",
"$$###@@@@@@@##$$",
"$##@@@@@@@@@@@#$",
"##@@++++++++@@@@",
"@@++OOOOOOoooO++",
"$++OOOooooooXX+$",
"$$+OoXXXXX.  X$$",
"$$$oXXXX.    $$$",
"$$$$$$$$$$$$$$$$",
"$$$$$$$$$$$$$$$$"
};
