/* XPM */
static char *result[] = {
/* columns rows colors chars-per-pixel */
"16 16 7 1 ",
"  c #436323",
". c #59842F",
"X c #FFDD9C",
"o c #9CD7FF",
"O c #B9D9E2",
"+ c white",
"@ c None",
/* pixels */
"@@@@@@@@@@@@@@@@",
"@@@@@@@@@@@@@@@@",
"@@@@@@@@@@@@@@@@",
"@@@@@@@@@@@@@@@@",
"@@@@@@@@@@@@@@@@",
"@@@@@@o@X@@@@@@@",
"@@@@@o+O+X@@@@@@",
"@@@@@@o X@@@@@@@",
"@@@@@@@ .@@@@@@@",
"@@@@@@. @@@@@@@@",
"@@@@@@@@@@@@@@@@",
"@@@@@@@@@@@@@@@@",
"@@@@@@@@@@@@@@@@",
"@@@@@@@@@@@@@@@@",
"@@@@@@@@@@@@@@@@",
"@@@@@@@@@@@@@@@@"
};
