/* XPM */
static char *result[] = {
/* columns rows colors chars-per-pixel */
"64 64 4 1 ",
"  c #85C646",
". c #8CD149",
"X c #93DB4D",
"o c #99E550",
/* pixels */
"oooo........XXXXXXXX............ooooooooooooXXXXXXXXXXXXoooooooo",
"oooo........XXXXXXXX............ooooooooooooXXXXXXXXXXXXoooooooo",
"oooo........XXXXXXXX............ooooooooooooXXXXXXXXXXXXoooooooo",
"oooo........XXXXXXXX............ooooooooooooXXXXXXXXXXXXoooooooo",
"....................oooooooooooooooooooo    XXXXXXXX    oooooooo",
"....................oooooooooooooooooooo    XXXXXXXX    oooooooo",
"....................oooooooooooooooooooo    XXXXXXXX    oooooooo",
"....................oooooooooooooooooooo    XXXXXXXX    oooooooo",
"XXXX    XXXX....oooo....oooo........    oooo                oooo",
"XXXX    XXXX....oooo....oooo........    oooo                oooo",
"XXXX    XXXX....oooo....oooo........    oooo                oooo",
"XXXX    XXXX....oooo....oooo........    oooo                oooo",
"oooo    ....oooooooooooooooooooo............oooo        oooo....",
"oooo    ....oooooooooooooooooooo............oooo        oooo....",
"oooo    ....oooooooooooooooooooo............oooo        oooo....",
"oooo    ....oooooooooooooooooooo............oooo        oooo....",
"oooooooo    ............oooo....................oooo    oooo....",
"oooooooo    ............oooo....................oooo    oooo....",
"oooooooo    ............oooo....................oooo    oooo....",
"oooooooo    ............oooo....................oooo    oooo....",
"oooo    oooooooooooooooooooo............oooo....oooo        oooo",
"oooo    oooooooooooooooooooo............oooo....oooo        oooo",
"oooo    oooooooooooooooooooo............oooo....oooo        oooo",
"oooo    oooooooooooooooooooo............oooo....oooo        oooo",
"    oooooooooooooooooooooooooooo................oooo....        ",
"    oooooooooooooooooooooooooooo................oooo....        ",
"    oooooooooooooooooooooooooooo................oooo....        ",
"    oooooooooooooooooooooooooooo................oooo....        ",
"oooo    oooooooooooooooooooo............                    ....",
"oooo    oooooooooooooooooooo............                    ....",
"oooo    oooooooooooooooooooo............                    ....",
"oooo    oooooooooooooooooooo............                    ....",
"oooooooo    oooooooooooo....oooo            ........XXXX........",
"oooooooo    oooooooooooo....oooo            ........XXXX........",
"oooooooo    oooooooooooo....oooo            ........XXXX........",
"oooooooo    oooooooooooo....oooo            ........XXXX........",
"oooooooo    ................oooooooooooo....    ooooXXXXoooo....",
"oooooooo    ................oooooooooooo....    ooooXXXXoooo....",
"oooooooo    ................oooooooooooo....    ooooXXXXoooo....",
"oooooooo    ................oooooooooooo....    ooooXXXXoooo....",
"oooooooo    ............oooo                ....    XXXXoooo....",
"oooooooo    ............oooo                ....    XXXXoooo....",
"oooooooo    ............oooo                ....    XXXXoooo....",
"oooooooo    ............oooo                ....    XXXXoooo....",
"............oooo....oooo            oooooooo....    XXXXoooo....",
"............oooo....oooo            oooooooo....    XXXXoooo....",
"............oooo....oooo            oooooooo....    XXXXoooo....",
"............oooo....oooo            oooooooo....    XXXXoooo....",
"........................                ........    oooo....oooo",
"........................                ........    oooo....oooo",
"........................                ........    oooo....oooo",
"........................                ........    oooo....oooo",
"............XXXXooooXXXX....oooooooo....    ....    XXXXoooooooo",
"............XXXXooooXXXX....oooooooo....    ....    XXXXoooooooo",
"............XXXXooooXXXX....oooooooo....    ....    XXXXoooooooo",
"............XXXXooooXXXX....oooooooo....    ....    XXXXoooooooo",
"XXXX....oooo....oooo....XXXXoooo....oooo....    XXXXoooooooo....",
"XXXX....oooo....oooo....XXXXoooo....oooo....    XXXXoooooooo....",
"XXXX....oooo....oooo....XXXXoooo....oooo....    XXXXoooooooo....",
"XXXX....oooo....oooo....XXXXoooo....oooo....    XXXXoooooooo....",
"ooooooooXXXXXXXXoooo....XXXXooooXXXXooooooooXXXXoooooooo....oooo",
"ooooooooXXXXXXXXoooo....XXXXooooXXXXooooooooXXXXoooooooo....oooo",
"ooooooooXXXXXXXXoooo....XXXXooooXXXXooooooooXXXXoooooooo....oooo",
"ooooooooXXXXXXXXoooo....XXXXooooXXXXooooooooXXXXoooooooo....oooo"
};
