/* XPM */
static char *result[] = {
/* columns rows colors chars-per-pixel */
"64 64 4 1 ",
"  c #85C646",
". c #8CD149",
"X c #93DB4D",
"o c #99E550",
/* pixels */
"oooo........XXXXXXXX............ooooooooooooXXXXXXXXXXXXoooooooo",
"oooo........XXXXXXXX............ooooooooooooXXXXXXXXXXXXoooooooo",
"oooo........XXXXXXXX............ooooooooooooXXXXXXXXXXXXoooooooo",
"oooo........XXXXXXXX............ooooooooooooXXXXXXXXXXXXoooooooo",
"....................oooooooooooooooooooo    XXXXXXXX    oooooooo",
"....................oooooooooooooooooooo    XXXXXXXX    oooooooo",
"....................oooooooooooooooooooo    XXXXXXXX    oooooooo",
"....................oooooooooooooooooooo    XXXXXXXX    oooooooo",
"XXXX    XXXX....oooo....oooooooooooooooooooo                oooo",
"XXXX    XXXX....oooo....oooooooooooooooooooo                oooo",
"XXXX    XXXX....oooo....oooooooooooooooooooo                oooo",
"XXXX    XXXX....oooo....oooooooooooooooooooo                oooo",
"oooo    ....ooooooooooooooooXXXXoooooooo....oooo        oooo....",
"oooo    ....ooooooooooooooooXXXXoooooooo....oooo        oooo....",
"oooo    ....ooooooooooooooooXXXXoooooooo....oooo        oooo....",
"oooo    ....ooooooooooooooooXXXXoooooooo....oooo        oooo....",
"oooo    XXXX................oooo    oooo........oooo    oooo....",
"oooo    XXXX................oooo    oooo........oooo    oooo....",
"oooo    XXXX................oooo    oooo........oooo    oooo....",
"oooo    XXXX................oooo    oooo........oooo    oooo....",
"ooooXXXX    oooo........oooo............oooo....oooo        oooo",
"ooooXXXX    oooo........oooo............oooo....oooo        oooo",
"ooooXXXX    oooo........oooo............oooo....oooo        oooo",
"ooooXXXX    oooo........oooo............oooo....oooo        oooo",
"XXXX....    XXXXooooXXXX........oooo........XXXXXXXX....        ",
"XXXX....    XXXXooooXXXX........oooo........XXXXXXXX....        ",
"XXXX....    XXXXooooXXXX........oooo........XXXXXXXX....        ",
"XXXX....    XXXXooooXXXX........oooo........XXXXXXXX....        ",
"    ooooXXXX........XXXX............    XXXX                ....",
"    ooooXXXX........XXXX............    XXXX                ....",
"    ooooXXXX........XXXX............    XXXX                ....",
"    ooooXXXX........XXXX............    XXXX                ....",
"ooooXXXXXXXXXXXXXXXX....oooo....XXXXXXXX    ........XXXX........",
"ooooXXXXXXXXXXXXXXXX....oooo....XXXXXXXX    ........XXXX........",
"ooooXXXXXXXXXXXXXXXX....oooo....XXXXXXXX    ........XXXX........",
"ooooXXXXXXXXXXXXXXXX....oooo....XXXXXXXX    ........XXXX........",
"ooooooooXXXXXXXX    ooooXXXXXXXX    oooo....XXXXXXXXXXXXXXXX....",
"ooooooooXXXXXXXX    ooooXXXXXXXX    oooo....XXXXXXXXXXXXXXXX....",
"ooooooooXXXXXXXX    ooooXXXXXXXX    oooo....XXXXXXXXXXXXXXXX....",
"ooooooooXXXXXXXX    ooooXXXXXXXX    oooo....XXXXXXXXXXXXXXXX....",
"ooooXXXXXXXX....XXXXXXXX....XXXXXXXX....XXXXXXXXXXXXXXXXoooo....",
"ooooXXXXXXXX....XXXXXXXX....XXXXXXXX....XXXXXXXXXXXXXXXXoooo....",
"ooooXXXXXXXX....XXXXXXXX....XXXXXXXX....XXXXXXXXXXXXXXXXoooo....",
"ooooXXXXXXXX....XXXXXXXX....XXXXXXXX....XXXXXXXXXXXXXXXXoooo....",
"....oooo....XXXXXXXXXXXXXXXXXXXXoooo....ooooXXXXXXXXXXXXoooo....",
"....oooo....XXXXXXXXXXXXXXXXXXXXoooo....ooooXXXXXXXXXXXXoooo....",
"....oooo....XXXXXXXXXXXXXXXXXXXXoooo....ooooXXXXXXXXXXXXoooo....",
"....oooo....XXXXXXXXXXXXXXXXXXXXoooo....ooooXXXXXXXXXXXXoooo....",
"....XXXXooooXXXX........XXXX....XXXXXXXXXXXXXXXXXXXXoooo....oooo",
"....XXXXooooXXXX........XXXX....XXXXXXXXXXXXXXXXXXXXoooo....oooo",
"....XXXXooooXXXX........XXXX....XXXXXXXXXXXXXXXXXXXXoooo....oooo",
"....XXXXooooXXXX........XXXX....XXXXXXXXXXXXXXXXXXXXoooo....oooo",
"............XXXXXXXXXXXX....XXXX........    ....XXXXXXXXoooooooo",
"............XXXXXXXXXXXX....XXXX........    ....XXXXXXXXoooooooo",
"............XXXXXXXXXXXX....XXXX........    ....XXXXXXXXoooooooo",
"............XXXXXXXXXXXX....XXXX........    ....XXXXXXXXoooooooo",
"oooooooooooo............XXXXXXXX....XXXX....    XXXXoooooooooooo",
"oooooooooooo............XXXXXXXX....XXXX....    XXXXoooooooooooo",
"oooooooooooo............XXXXXXXX....XXXX....    XXXXoooooooooooo",
"oooooooooooo............XXXXXXXX....XXXX....    XXXXoooooooooooo",
"ooooooooXXXXXXXX........XXXXXXXXXXXXoooo....XXXXoooooooooooooooo",
"ooooooooXXXXXXXX........XXXXXXXXXXXXoooo....XXXXoooooooooooooooo",
"ooooooooXXXXXXXX........XXXXXXXXXXXXoooo....XXXXoooooooooooooooo",
"ooooooooXXXXXXXX........XXXXXXXXXXXXoooo....XXXXoooooooooooooooo"
};
