/* XPM */
static char *result[] = {
/* columns rows colors chars-per-pixel */
"64 64 4 1 ",
"  c #85C646",
". c #8CD149",
"X c #93DB4D",
"o c #99E550",
/* pixels */
"ooooXXXXXXXXooooXXXX............                XXXXXXXXXXXXoooo",
"ooooXXXXXXXXooooXXXX............                XXXXXXXXXXXXoooo",
"ooooXXXXXXXXooooXXXX............                XXXXXXXXXXXXoooo",
"ooooXXXXXXXXooooXXXX............                XXXXXXXXXXXXoooo",
"ooooooooXXXXXXXXoooooooooooooooooooo    oooooooo    ooooooooXXXX",
"ooooooooXXXXXXXXoooooooooooooooooooo    oooooooo    ooooooooXXXX",
"ooooooooXXXXXXXXoooooooooooooooooooo    oooooooo    ooooooooXXXX",
"ooooooooXXXXXXXXoooooooooooooooooooo    oooooooo    ooooooooXXXX",
"XXXXooooXXXXooooXXXXoooooooo....    ooooXXXX        XXXXoooooooo",
"XXXXooooXXXXooooXXXXoooooooo....    ooooXXXX        XXXXoooooooo",
"XXXXooooXXXXooooXXXXoooooooo....    ooooXXXX        XXXXoooooooo",
"XXXXooooXXXXooooXXXXoooooooo....    ooooXXXX        XXXXoooooooo",
"XXXXoooo....XXXXooooooooooooXXXX....ooooXXXX            XXXXoooo",
"XXXXoooo....XXXXooooooooooooXXXX....ooooXXXX            XXXXoooo",
"XXXXoooo....XXXXooooooooooooXXXX....ooooXXXX            XXXXoooo",
"XXXXoooo....XXXXooooooooooooXXXX....ooooXXXX            XXXXoooo",
"XXXX    XXXXooooooooXXXXXXXXXXXXXXXXXXXXXXXX        XXXX    ....",
"XXXX    XXXXooooooooXXXXXXXXXXXXXXXXXXXXXXXX        XXXX    ....",
"XXXX    XXXXooooooooXXXXXXXXXXXXXXXXXXXXXXXX        XXXX    ....",
"XXXX    XXXXooooooooXXXXXXXXXXXXXXXXXXXXXXXX        XXXX    ....",
"XXXX        XXXXooooooooXXXXXXXXooooXXXXXXXX    oooo            ",
"XXXX        XXXXooooooooXXXXXXXXooooXXXXXXXX    oooo            ",
"XXXX        XXXXooooooooXXXXXXXXooooXXXXXXXX    oooo            ",
"XXXX        XXXXooooooooXXXXXXXXooooXXXXXXXX    oooo            ",
"XXXX                ooooXXXXXXXXXXXXXXXXXXXX        oooo        ",
"XXXX                ooooXXXXXXXXXXXXXXXXXXXX        oooo        ",
"XXXX                ooooXXXXXXXXXXXXXXXXXXXX        oooo        ",
"XXXX                ooooXXXXXXXXXXXXXXXXXXXX        oooo        ",
"        oooo            XXXXXXXXXXXXXXXXXXXXXXXX    oooo    ....",
"        oooo            XXXXXXXXXXXXXXXXXXXXXXXX    oooo    ....",
"        oooo            XXXXXXXXXXXXXXXXXXXXXXXX    oooo    ....",
"        oooo            XXXXXXXXXXXXXXXXXXXXXXXX    oooo    ....",
"    oooo    oooo        XXXXXXXXXXXXXXXXXXXXXXXXXXXX        oooo",
"    oooo    oooo        XXXXXXXXXXXXXXXXXXXXXXXXXXXX        oooo",
"    oooo    oooo        XXXXXXXXXXXXXXXXXXXXXXXXXXXX        oooo",
"    oooo    oooo        XXXXXXXXXXXXXXXXXXXXXXXXXXXX        oooo",
"oooo        XXXXXXXX    ooooXXXXXXXXXXXXXXXXooooXXXXXXXX    ....",
"oooo        XXXXXXXX    ooooXXXXXXXXXXXXXXXXooooXXXXXXXX    ....",
"oooo        XXXXXXXX    ooooXXXXXXXXXXXXXXXXooooXXXXXXXX    ....",
"oooo        XXXXXXXX    ooooXXXXXXXXXXXXXXXXooooXXXXXXXX    ....",
"XXXXXXXX    ooooXXXXXXXXXXXXooooXXXXXXXXXXXXXXXX    XXXXoooo    ",
"XXXXXXXX    ooooXXXXXXXXXXXXooooXXXXXXXXXXXXXXXX    XXXXoooo    ",
"XXXXXXXX    ooooXXXXXXXXXXXXooooXXXXXXXXXXXXXXXX    XXXXoooo    ",
"XXXXXXXX    ooooXXXXXXXXXXXXooooXXXXXXXXXXXXXXXX    XXXXoooo    ",
"XXXX            XXXXXXXXXXXXXXXXooooXXXXXXXXXXXX                ",
"XXXX            XXXXXXXXXXXXXXXXooooXXXXXXXXXXXX                ",
"XXXX            XXXXXXXXXXXXXXXXooooXXXXXXXXXXXX                ",
"XXXX            XXXXXXXXXXXXXXXXooooXXXXXXXXXXXX                ",
"XXXXXXXX            XXXXXXXXooooXXXXooooXXXXXXXXXXXX            ",
"XXXXXXXX            XXXXXXXXooooXXXXooooXXXXXXXXXXXX            ",
"XXXXXXXX            XXXXXXXXooooXXXXooooXXXXXXXXXXXX            ",
"XXXXXXXX            XXXXXXXXooooXXXXooooXXXXXXXXXXXX            ",
"....XXXXoooo    oooo    XXXXXXXXXXXX....    XXXXXXXX        oooo",
"....XXXXoooo    oooo    XXXXXXXXXXXX....    XXXXXXXX        oooo",
"....XXXXoooo    oooo    XXXXXXXXXXXX....    XXXXXXXX        oooo",
"....XXXXoooo    oooo    XXXXXXXXXXXX....    XXXXXXXX        oooo",
"XXXXXXXXXXXXXXXXXXXX    XXXXXXXXXXXXXXXXXXXXXXXXXXXXoooooooo....",
"XXXXXXXXXXXXXXXXXXXX    XXXXXXXXXXXXXXXXXXXXXXXXXXXXoooooooo....",
"XXXXXXXXXXXXXXXXXXXX    XXXXXXXXXXXXXXXXXXXXXXXXXXXXoooooooo....",
"XXXXXXXXXXXXXXXXXXXX    XXXXXXXXXXXXXXXXXXXXXXXXXXXXoooooooo....",
"XXXXXXXXXXXXXXXXoooo    ooooXXXXXXXXXXXXXXXXXXXXoooooooo....oooo",
"XXXXXXXXXXXXXXXXoooo    ooooXXXXXXXXXXXXXXXXXXXXoooooooo....oooo",
"XXXXXXXXXXXXXXXXoooo    ooooXXXXXXXXXXXXXXXXXXXXoooooooo....oooo",
"XXXXXXXXXXXXXXXXoooo    ooooXXXXXXXXXXXXXXXXXXXXoooooooo....oooo"
};
