/* XPM */
static char *result[] = {
/* columns rows colors chars-per-pixel */
"64 64 4 1 ",
"  c #85C646",
". c #8CD149",
"X c #93DB4D",
"o c #99E550",
/* pixels */
"oooo........XXXXXXXX............ooooooooooooXXXXooooXXXXoooooooo",
"oooo........XXXXXXXX............ooooooooooooXXXXooooXXXXoooooooo",
"oooo........XXXXXXXX............ooooooooooooXXXXooooXXXXoooooooo",
"oooo........XXXXXXXX............ooooooooooooXXXXooooXXXXoooooooo",
"....................oooooooooooooooooooo    XXXXoooo    oooooooo",
"....................oooooooooooooooooooo    XXXXoooo    oooooooo",
"....................oooooooooooooooooooo    XXXXoooo    oooooooo",
"....................oooooooooooooooooooo    XXXXoooo    oooooooo",
"XXXX    XXXX....oooo....oooo....oooo    oooo    oooooooo    oooo",
"XXXX    XXXX....oooo....oooo....oooo    oooo    oooooooo    oooo",
"XXXX    XXXX....oooo....oooo....oooo    oooo    oooooooo    oooo",
"XXXX    XXXX....oooo....oooo....oooo    oooo    oooooooo    oooo",
"oooo    ....oooooooooooo....XXXX....oooo....oooooooooooooooo....",
"oooo    ....oooooooooooo....XXXX....oooo....oooooooooooooooo....",
"oooo    ....oooooooooooo....XXXX....oooo....oooooooooooooooo....",
"oooo    ....oooooooooooo....XXXX....oooo....oooooooooooooooo....",
"oooo    XXXX....................    oooo........oooooooooooo....",
"oooo    XXXX....................    oooo........oooooooooooo....",
"oooo    XXXX....................    oooo........oooooooooooo....",
"oooo    XXXX....................    oooo........oooooooooooo....",
"ooooXXXX    oooo........oooo........oooooooo....oooooooooooooooo",
"ooooXXXX    oooo........oooo........oooooooo....oooooooooooooooo",
"ooooXXXX    oooo........oooo........oooooooo....oooooooooooooooo",
"ooooXXXX    oooo........oooo........oooooooo....oooooooooooooooo",
"XXXX....    oooooooooooo........oooooooooooooooooooooooooooo    ",
"XXXX....    oooooooooooo........oooooooooooooooooooooooooooo    ",
"XXXX....    oooooooooooo........oooooooooooooooooooooooooooo    ",
"XXXX....    oooooooooooo........oooooooooooooooooooooooooooo    ",
"    oooo    oooo................oooo    oooooooooooo    oooo....",
"    oooo    oooo................oooo    oooooooooooo    oooo....",
"    oooo    oooo................oooo    oooooooooooo    oooo....",
"    oooo    oooo................oooo    oooooooooooo    oooo....",
"oooo    oooo    oooo....oooo....    oooo    oooooooooooo........",
"oooo    oooo    oooo....oooo....    oooo    oooooooooooo........",
"oooo    oooo    oooo....oooo....    oooo    oooooooooooo........",
"oooo    oooo    oooo....oooo....    oooo    oooooooooooo........",
"oooooooooooo....    oooooooooooooooooooooooooooooooooooooooo....",
"oooooooooooo....    oooooooooooooooooooooooooooooooooooooooo....",
"oooooooooooo....    oooooooooooooooooooooooooooooooooooooooo....",
"oooooooooooo....    oooooooooooooooooooooooooooooooooooooooo....",
"oooooooooooooooo    oooooooo....oooooooooooooooo    XXXXoooo....",
"oooooooooooooooo    oooooooo....oooooooooooooooo    XXXXoooo....",
"oooooooooooooooo    oooooooo....oooooooooooooooo    XXXXoooo....",
"oooooooooooooooo    oooooooo....oooooooooooooooo    XXXXoooo....",
"oooooooooooooooooooo        oooooooooooooooo....ooooXXXXoooooooo",
"oooooooooooooooooooo        oooooooooooooooo....ooooXXXXoooooooo",
"oooooooooooooooooooo        oooooooooooooooo....ooooXXXXoooooooo",
"oooooooooooooooooooo        oooooooooooooooo....ooooXXXXoooooooo",
"....oooooooooooooooooooo....oooo    oooooooooooo    oooo....oooo",
"....oooooooooooooooooooo....oooo    oooooooooooo    oooo....oooo",
"....oooooooooooooooooooo....oooo    oooooooooooo    oooo....oooo",
"....oooooooooooooooooooo....oooo    oooooooooooo    oooo....oooo",
"........ooooXXXXoooooooooooo....oooo....ooooooooooooXXXXoooooooo",
"........ooooXXXXoooooooooooo....oooo....ooooooooooooXXXXoooooooo",
"........ooooXXXXoooooooooooo....oooo....ooooooooooooXXXXoooooooo",
"........ooooXXXXoooooooooooo....oooo....ooooooooooooXXXXoooooooo",
"XXXXoooooooooooooooo....XXXXoooo....oooo....oooooooooooooooo....",
"XXXXoooooooooooooooo....XXXXoooo....oooo....oooooooooooooooo....",
"XXXXoooooooooooooooo....XXXXoooo....oooo....oooooooooooooooo....",
"XXXXoooooooooooooooo....XXXXoooo....oooo....oooooooooooooooo....",
"ooooooooXXXXXXXX........XXXXXXXXXXXXoooo....XXXXoooooooo....oooo",
"ooooooooXXXXXXXX........XXXXXXXXXXXXoooo....XXXXoooooooo....oooo",
"ooooooooXXXXXXXX........XXXXXXXXXXXXoooo....XXXXoooooooo....oooo",
"ooooooooXXXXXXXX........XXXXXXXXXXXXoooo....XXXXoooooooo....oooo"
};
