/* XPM */
static char *result[] = {
/* columns rows colors chars-per-pixel */
"16 16 11 1 ",
"  c #629233",
". c #70A73B",
"X c #77B13E",
"o c #FAEE00",
"O c #85C646",
"+ c #8CD149",
"@ c #93DB4D",
"# c #99E550",
"$ c #C1E683",
"% c #CCD2A7",
"& c #CFD8A8",
/* pixels */
"#++@@+++###@@@##",
"+++++####+@@@O##",
"@@@+o+#++@+@OOO#",
"#@+o$o+@++O+OO#+",
"#+@+o .+O+O#+OO+",
"#@+++ +O+OO+@@OO",
"@+O+++#+OO++@+OO",
"O+OO+#++OO+@++O+",
"+O++O++O++@+@@++",
"##@+O+OOO+#@#@++",
"#++@+OO++O@@@@++",
"++@@@+O+O@@@&#++",
"+@++++OO@@+%$%++",
"++@@@@O+#+X %@++",
"@##@@+@@+@+ @#++",
"##@@++@@@#+###++"
};
