/* XPM */
static char *result[] = {
/* columns rows colors chars-per-pixel */
"64 64 11 1 ",
"  c #629233",
". c #70A73B",
"X c #77B13E",
"o c #FAEE00",
"O c #85C646",
"+ c #8CD149",
"@ c #93DB4D",
"# c #99E550",
"$ c #C1E683",
"% c #CCD2A7",
"& c #CFD8A8",
/* pixels */
"####++++++++@@@@@@@@++++++++++++############@@@@@@@@@@@@########",
"####++++++++@@@@@@@@++++++++++++############@@@@@@@@@@@@########",
"####++++++++@@@@@@@@++++++++++++############@@@@@@@@@@@@########",
"####++++++++@@@@@@@@++++++++++++############@@@@@@@@@@@@########",
"++++++++++++++++++++################++++@@@@@@@@@@@@OOOO########",
"++++++++++++++++++++################++++@@@@@@@@@@@@OOOO########",
"++++++++++++++++++++################++++@@@@@@@@@@@@OOOO########",
"++++++++++++++++++++################++++@@@@@@@@@@@@OOOO########",
"@@@@@@@@@@@@++++oooo++++####++++++++@@@@++++@@@@OOOOOOOOOOOO####",
"@@@@@@@@@@@@++++oooo++++####++++++++@@@@++++@@@@OOOOOOOOOOOO####",
"@@@@@@@@@@@@++++oooo++++####++++++++@@@@++++@@@@OOOOOOOOOOOO####",
"@@@@@@@@@@@@++++oooo++++####++++++++@@@@++++@@@@OOOOOOOOOOOO####",
"####@@@@++++oooo$$$$oooo++++@@@@++++++++OOOO++++OOOOOOOO####++++",
"####@@@@++++oooo$$$$oooo++++@@@@++++++++OOOO++++OOOOOOOO####++++",
"####@@@@++++oooo$$$$oooo++++@@@@++++++++OOOO++++OOOOOOOO####++++",
"####@@@@++++oooo$$$$oooo++++@@@@++++++++OOOO++++OOOOOOOO####++++",
"####++++@@@@++++oooo    ....++++OOOO++++OOOO####++++OOOOOOOO++++",
"####++++@@@@++++oooo    ....++++OOOO++++OOOO####++++OOOOOOOO++++",
"####++++@@@@++++oooo    ....++++OOOO++++OOOO####++++OOOOOOOO++++",
"####++++@@@@++++oooo    ....++++OOOO++++OOOO####++++OOOOOOOO++++",
"####@@@@++++++++++++    ++++OOOO++++OOOOOOOO++++@@@@@@@@OOOOOOOO",
"####@@@@++++++++++++    ++++OOOO++++OOOOOOOO++++@@@@@@@@OOOOOOOO",
"####@@@@++++++++++++    ++++OOOO++++OOOOOOOO++++@@@@@@@@OOOOOOOO",
"####@@@@++++++++++++    ++++OOOO++++OOOOOOOO++++@@@@@@@@OOOOOOOO",
"@@@@++++OOOO++++++++++++####++++OOOOOOOO++++++++@@@@++++OOOOOOOO",
"@@@@++++OOOO++++++++++++####++++OOOOOOOO++++++++@@@@++++OOOOOOOO",
"@@@@++++OOOO++++++++++++####++++OOOOOOOO++++++++@@@@++++OOOOOOOO",
"@@@@++++OOOO++++++++++++####++++OOOOOOOO++++++++@@@@++++OOOOOOOO",
"OOOO++++OOOOOOOO++++####++++++++OOOOOOOO++++@@@@++++++++OOOO++++",
"OOOO++++OOOOOOOO++++####++++++++OOOOOOOO++++@@@@++++++++OOOO++++",
"OOOO++++OOOOOOOO++++####++++++++OOOOOOOO++++@@@@++++++++OOOO++++",
"OOOO++++OOOOOOOO++++####++++++++OOOOOOOO++++@@@@++++++++OOOO++++",
"++++OOOO++++++++OOOO++++++++OOOO++++++++@@@@++++@@@@@@@@++++++++",
"++++OOOO++++++++OOOO++++++++OOOO++++++++@@@@++++@@@@@@@@++++++++",
"++++OOOO++++++++OOOO++++++++OOOO++++++++@@@@++++@@@@@@@@++++++++",
"++++OOOO++++++++OOOO++++++++OOOO++++++++@@@@++++@@@@@@@@++++++++",
"########@@@@++++OOOO++++OOOOOOOOOOOO++++####@@@@####@@@@++++++++",
"########@@@@++++OOOO++++OOOOOOOOOOOO++++####@@@@####@@@@++++++++",
"########@@@@++++OOOO++++OOOOOOOOOOOO++++####@@@@####@@@@++++++++",
"########@@@@++++OOOO++++OOOOOOOOOOOO++++####@@@@####@@@@++++++++",
"####++++++++@@@@++++OOOOOOOO++++++++OOOO@@@@@@@@@@@@@@@@++++++++",
"####++++++++@@@@++++OOOOOOOO++++++++OOOO@@@@@@@@@@@@@@@@++++++++",
"####++++++++@@@@++++OOOOOOOO++++++++OOOO@@@@@@@@@@@@@@@@++++++++",
"####++++++++@@@@++++OOOOOOOO++++++++OOOO@@@@@@@@@@@@@@@@++++++++",
"++++++++@@@@@@@@@@@@++++OOOO++++OOOO@@@@@@@@@@@@&&&&####++++++++",
"++++++++@@@@@@@@@@@@++++OOOO++++OOOO@@@@@@@@@@@@&&&&####++++++++",
"++++++++@@@@@@@@@@@@++++OOOO++++OOOO@@@@@@@@@@@@&&&&####++++++++",
"++++++++@@@@@@@@@@@@++++OOOO++++OOOO@@@@@@@@@@@@&&&&####++++++++",
"++++@@@@++++++++++++++++OOOOOOOO@@@@@@@@++++%%%%$$$$%%%%++++++++",
"++++@@@@++++++++++++++++OOOOOOOO@@@@@@@@++++%%%%$$$$%%%%++++++++",
"++++@@@@++++++++++++++++OOOOOOOO@@@@@@@@++++%%%%$$$$%%%%++++++++",
"++++@@@@++++++++++++++++OOOOOOOO@@@@@@@@++++%%%%$$$$%%%%++++++++",
"++++++++@@@@@@@@@@@@@@@@OOOO++++####++++XXXX    %%%%@@@@++++++++",
"++++++++@@@@@@@@@@@@@@@@OOOO++++####++++XXXX    %%%%@@@@++++++++",
"++++++++@@@@@@@@@@@@@@@@OOOO++++####++++XXXX    %%%%@@@@++++++++",
"++++++++@@@@@@@@@@@@@@@@OOOO++++####++++XXXX    %%%%@@@@++++++++",
"@@@@########@@@@@@@@++++@@@@@@@@++++@@@@++++    @@@@####++++++++",
"@@@@########@@@@@@@@++++@@@@@@@@++++@@@@++++    @@@@####++++++++",
"@@@@########@@@@@@@@++++@@@@@@@@++++@@@@++++    @@@@####++++++++",
"@@@@########@@@@@@@@++++@@@@@@@@++++@@@@++++    @@@@####++++++++",
"########@@@@@@@@++++++++@@@@@@@@@@@@####++++############++++++++",
"########@@@@@@@@++++++++@@@@@@@@@@@@####++++############++++++++",
"########@@@@@@@@++++++++@@@@@@@@@@@@####++++############++++++++",
"########@@@@@@@@++++++++@@@@@@@@@@@@####++++############++++++++"
};
