/* XPM */
static char *result[] = {
/* columns rows colors chars-per-pixel */
"64 64 4 1 ",
"  c #85C646",
". c #8CD149",
"X c #93DB4D",
"o c #99E550",
/* pixels */
"oooo........XXXXXXXX............ooooooooooooXXXXXXXXXXXXoooooooo",
"oooo........XXXXXXXX............ooooooooooooXXXXXXXXXXXXoooooooo",
"oooo........XXXXXXXX............ooooooooooooXXXXXXXXXXXXoooooooo",
"oooo........XXXXXXXX............ooooooooooooXXXXXXXXXXXXoooooooo",
"....................oooooooooooooooooooo    XXXXXXXX    oooooooo",
"....................oooooooooooooooooooo    XXXXXXXX    oooooooo",
"....................oooooooooooooooooooo    XXXXXXXX    oooooooo",
"....................oooooooooooooooooooo    XXXXXXXX    oooooooo",
"XXXX    XXXX....oooo....oooo....oooo    oooo                oooo",
"XXXX    XXXX....oooo....oooo....oooo    oooo                oooo",
"XXXX    XXXX....oooo....oooo....oooo    oooo                oooo",
"XXXX    XXXX....oooo....oooo....oooo    oooo                oooo",
"oooo    ....oooooooooooo....XXXX....oooo....oooo        oooo....",
"oooo    ....oooooooooooo....XXXX....oooo....oooo        oooo....",
"oooo    ....oooooooooooo....XXXX....oooo....oooo        oooo....",
"oooo    ....oooooooooooo....XXXX....oooo....oooo        oooo....",
"oooo    XXXX....................    oooo........oooo    oooo....",
"oooo    XXXX....................    oooo........oooo    oooo....",
"oooo    XXXX....................    oooo........oooo    oooo....",
"oooo    XXXX....................    oooo........oooo    oooo....",
"ooooXXXX    oooo........oooo............oooo....oooo        oooo",
"ooooXXXX    oooo........oooo............oooo....oooo        oooo",
"ooooXXXX    oooo........oooo............oooo....oooo        oooo",
"ooooXXXX    oooo........oooo............oooo....oooo        oooo",
"XXXX....    oooooooooooo........oooo............oooo....        ",
"XXXX....    oooooooooooo........oooo............oooo....        ",
"XXXX....    oooooooooooo........oooo............oooo....        ",
"XXXX....    oooooooooooo........oooo............oooo....        ",
"    oooo    ........................                        ....",
"    oooo    ........................                        ....",
"    oooo    ........................                        ....",
"    oooo    ........................                        ....",
"oooo    ....    ........oooo....            ........XXXX........",
"oooo    ....    ........oooo....            ........XXXX........",
"oooo    ....    ........oooo....            ........XXXX........",
"oooo    ....    ........oooo....            ........XXXX........",
"oooooooo........    oooo........    oooo....    ooooXXXXoooo....",
"oooooooo........    oooo........    oooo....    ooooXXXXoooo....",
"oooooooo........    oooo........    oooo....    ooooXXXXoooo....",
"oooooooo........    oooo........    oooo....    ooooXXXXoooo....",
"oooo............    oooo................oooo....    XXXXoooo....",
"oooo............    oooo................oooo....    XXXXoooo....",
"oooo............    oooo................oooo....    XXXXoooo....",
"oooo............    oooo................oooo....    XXXXoooo....",
"....oooo....oooo....            oooo....oooo....    XXXXoooo....",
"....oooo....oooo....            oooo....oooo....    XXXXoooo....",
"....oooo....oooo....            oooo....oooo....    XXXXoooo....",
"....oooo....oooo....            oooo....oooo....    XXXXoooo....",
"....XXXXoooo....................        ........    oooo....oooo",
"....XXXXoooo....................        ........    oooo....oooo",
"....XXXXoooo....................        ........    oooo....oooo",
"....XXXXoooo....................        ........    oooo....oooo",
"............XXXXXXXXXXXX................    ....    XXXXoooooooo",
"............XXXXXXXXXXXX................    ....    XXXXoooooooo",
"............XXXXXXXXXXXX................    ....    XXXXoooooooo",
"............XXXXXXXXXXXX................    ....    XXXXoooooooo",
"XXXXoooooooo............XXXXXXXX....XXXX....    XXXXoooooooo....",
"XXXXoooooooo............XXXXXXXX....XXXX....    XXXXoooooooo....",
"XXXXoooooooo............XXXXXXXX....XXXX....    XXXXoooooooo....",
"XXXXoooooooo............XXXXXXXX....XXXX....    XXXXoooooooo....",
"ooooooooXXXXXXXX........XXXXXXXXXXXXoooo....XXXXoooooooo....oooo",
"ooooooooXXXXXXXX........XXXXXXXXXXXXoooo....XXXXoooooooo....oooo",
"ooooooooXXXXXXXX........XXXXXXXXXXXXoooo....XXXXoooooooo....oooo",
"ooooooooXXXXXXXX........XXXXXXXXXXXXoooo....XXXXoooooooo....oooo"
};
