/* XPM */
static char *result[] = {
/* columns rows colors chars-per-pixel */
"64 64 4 1 ",
"  c #85C646",
". c #8CD149",
"X c #93DB4D",
"o c #99E550",
/* pixels */
"XXXXXXXXXXXXooooXXXX............                XXXXXXXXXXXXoooo",
"XXXXXXXXXXXXooooXXXX............                XXXXXXXXXXXXoooo",
"XXXXXXXXXXXXooooXXXX............                XXXXXXXXXXXXoooo",
"XXXXXXXXXXXXooooXXXX............                XXXXXXXXXXXXoooo",
"XXXXXXXXXXXXXXXXoooooooooooooooooooo    ooooooooXXXXooooooooXXXX",
"XXXXXXXXXXXXXXXXoooooooooooooooooooo    ooooooooXXXXooooooooXXXX",
"XXXXXXXXXXXXXXXXoooooooooooooooooooo    ooooooooXXXXooooooooXXXX",
"XXXXXXXXXXXXXXXXoooooooooooooooooooo    ooooooooXXXXooooooooXXXX",
"XXXXXXXXXXXXooooXXXXoooooooo....    ooooooooXXXXooooXXXXoooooooo",
"XXXXXXXXXXXXooooXXXXoooooooo....    ooooooooXXXXooooXXXXoooooooo",
"XXXXXXXXXXXXooooXXXXoooooooo....    ooooooooXXXXooooXXXXoooooooo",
"XXXXXXXXXXXXooooXXXXoooooooo....    ooooooooXXXXooooXXXXoooooooo",
"XXXXoooo....XXXXoooooooooooooooo....ooooXXXXXXXXXXXXXXXXXXXXoooo",
"XXXXoooo....XXXXoooooooooooooooo....ooooXXXXXXXXXXXXXXXXXXXXoooo",
"XXXXoooo....XXXXoooooooooooooooo....ooooXXXXXXXXXXXXXXXXXXXXoooo",
"XXXXoooo....XXXXoooooooooooooooo....ooooXXXXXXXXXXXXXXXXXXXXoooo",
"XXXXXXXXXXXXooooooooXXXXooooooooooooooooooooXXXXXXXXXXXXXXXX....",
"XXXXXXXXXXXXooooooooXXXXooooooooooooooooooooXXXXXXXXXXXXXXXX....",
"XXXXXXXXXXXXooooooooXXXXooooooooooooooooooooXXXXXXXXXXXXXXXX....",
"XXXXXXXXXXXXooooooooXXXXooooooooooooooooooooXXXXXXXXXXXXXXXX....",
"XXXXXXXXXXXXXXXXooooooooXXXXooooooooooooooooooooXXXXXXXXXXXXXXXX",
"XXXXXXXXXXXXXXXXooooooooXXXXooooooooooooooooooooXXXXXXXXXXXXXXXX",
"XXXXXXXXXXXXXXXXooooooooXXXXooooooooooooooooooooXXXXXXXXXXXXXXXX",
"XXXXXXXXXXXXXXXXooooooooXXXXooooooooooooooooooooXXXXXXXXXXXXXXXX",
"XXXXXXXXXXXXXXXXooooooooXXXXXXXXooooooooooooooooooooXXXX    oooo",
"XXXXXXXXXXXXXXXXooooooooXXXXXXXXooooooooooooooooooooXXXX    oooo",
"XXXXXXXXXXXXXXXXooooooooXXXXXXXXooooooooooooooooooooXXXX    oooo",
"XXXXXXXXXXXXXXXXooooooooXXXXXXXXooooooooooooooooooooXXXX    oooo",
"    XXXXXXXXXXXXXXXXXXXXXXXXXXXXXXXXooooooooooooooooooooXXXX....",
"    XXXXXXXXXXXXXXXXXXXXXXXXXXXXXXXXooooooooooooooooooooXXXX....",
"    XXXXXXXXXXXXXXXXXXXXXXXXXXXXXXXXooooooooooooooooooooXXXX....",
"    XXXXXXXXXXXXXXXXXXXXXXXXXXXXXXXXooooooooooooooooooooXXXX....",
"ooooooooXXXXXXXXXXXXXXXXXXXXXXXXXXXXXXXXoooooooo....XXXXoooooooo",
"ooooooooXXXXXXXXXXXXXXXXXXXXXXXXXXXXXXXXoooooooo....XXXXoooooooo",
"ooooooooXXXXXXXXXXXXXXXXXXXXXXXXXXXXXXXXoooooooo....XXXXoooooooo",
"ooooooooXXXXXXXXXXXXXXXXXXXXXXXXXXXXXXXXoooooooo....XXXXoooooooo",
"ooooooooooooXXXXXXXXooooooooXXXXXXXXXXXXXXXXooooooooXXXXoooo....",
"ooooooooooooXXXXXXXXooooooooXXXXXXXXXXXXXXXXooooooooXXXXoooo....",
"ooooooooooooXXXXXXXXooooooooXXXXXXXXXXXXXXXXooooooooXXXXoooo....",
"ooooooooooooXXXXXXXXooooooooXXXXXXXXXXXXXXXXooooooooXXXXoooo....",
"XXXXXXXXXXXXXXXXXXXXXXXXooooooooXXXXXXXXXXXXXXXXXXXXXXXXoooo....",
"XXXXXXXXXXXXXXXXXXXXXXXXooooooooXXXXXXXXXXXXXXXXXXXXXXXXoooo....",
"XXXXXXXXXXXXXXXXXXXXXXXXooooooooXXXXXXXXXXXXXXXXXXXXXXXXoooo....",
"XXXXXXXXXXXXXXXXXXXXXXXXooooooooXXXXXXXXXXXXXXXXXXXXXXXXoooo....",
"XXXXXXXX....XXXXXXXXXXXXXXXXooooooooXXXXXXXXXXXXXXXXoooooooo....",
"XXXXXXXX....XXXXXXXXXXXXXXXXooooooooXXXXXXXXXXXXXXXXoooooooo....",
"XXXXXXXX....XXXXXXXXXXXXXXXXooooooooXXXXXXXXXXXXXXXXoooooooo....",
"XXXXXXXX....XXXXXXXXXXXXXXXXooooooooXXXXXXXXXXXXXXXXoooooooo....",
"XXXXXXXXXXXX....XXXXXXXXXXXXXXXX    ooooXXXXXXXXXXXXXXXXoooooooo",
"XXXXXXXXXXXX....XXXXXXXXXXXXXXXX    ooooXXXXXXXXXXXXXXXXoooooooo",
"XXXXXXXXXXXX....XXXXXXXXXXXXXXXX    ooooXXXXXXXXXXXXXXXXoooooooo",
"XXXXXXXXXXXX....XXXXXXXXXXXXXXXX    ooooXXXXXXXXXXXXXXXXoooooooo",
"....XXXXooooooooooooXXXXXXXXXXXXXXXX....    XXXXXXXXXXXXoooooooo",
"....XXXXooooooooooooXXXXXXXXXXXXXXXX....    XXXXXXXXXXXXoooooooo",
"....XXXXooooooooooooXXXXXXXXXXXXXXXX....    XXXXXXXXXXXXoooooooo",
"....XXXXooooooooooooXXXXXXXXXXXXXXXX....    XXXXXXXXXXXXoooooooo",
"XXXXXXXXXXXXXXXXXXXXXXXXXXXXXXXXXXXXXXXXXXXXXXXXXXXXoooooooo....",
"XXXXXXXXXXXXXXXXXXXXXXXXXXXXXXXXXXXXXXXXXXXXXXXXXXXXoooooooo....",
"XXXXXXXXXXXXXXXXXXXXXXXXXXXXXXXXXXXXXXXXXXXXXXXXXXXXoooooooo....",
"XXXXXXXXXXXXXXXXXXXXXXXXXXXXXXXXXXXXXXXXXXXXXXXXXXXXoooooooo....",
"XXXXXXXXXXXXXXXXooooooooooooXXXXXXXXXXXXXXXXXXXXoooooooo....oooo",
"XXXXXXXXXXXXXXXXooooooooooooXXXXXXXXXXXXXXXXXXXXoooooooo....oooo",
"XXXXXXXXXXXXXXXXooooooooooooXXXXXXXXXXXXXXXXXXXXoooooooo....oooo",
"XXXXXXXXXXXXXXXXooooooooooooXXXXXXXXXXXXXXXXXXXXoooooooo....oooo"
};
