/* XPM */
static char *result[] = {
/* columns rows colors chars-per-pixel */
"16 16 4 1 ",
"  c #85C646",
". c #8CD149",
"X c #93DB4D",
"o c #99E550",
/* pixels */
"o..XX...oooXXXoo",
".....ooooo XX oo",
"X X.o.o.o o    o",
"o .ooo.X.o.o  o.",
"o X..... o..o o.",
"oX o..o...o.o  o",
"X. ooo..o...o.  ",
" o ......      .",
"o . ..o.   ..X..",
"oo.. o.. o. oXo.",
"o... o....o. Xo.",
".o.o.   o.o. Xo.",
".Xo.....  .. o.o",
"...XXX.... . Xoo",
"Xoo...XX.X. Xoo.",
"ooXX..XXXo.Xoo.o"
};
