/* XPM */
static char *result[] = {
/* columns rows colors chars-per-pixel */
"64 64 4 1 ",
"  c #85C646",
". c #8CD149",
"X c #93DB4D",
"o c #99E550",
/* pixels */
"oooo........XXXX                            XXXXXXXXXXXXoooooooo",
"oooo........XXXX                            XXXXXXXXXXXXoooooooo",
"oooo........XXXX                            XXXXXXXXXXXXoooooooo",
"oooo........XXXX                            XXXXXXXXXXXXoooooooo",
"....................oooooooooooooooooooo    XXXXXXXX    oooooooo",
"....................oooooooooooooooooooo    XXXXXXXX    oooooooo",
"....................oooooooooooooooooooo    XXXXXXXX    oooooooo",
"....................oooooooooooooooooooo    XXXXXXXX    oooooooo",
"XXXX    XXXX....oooo....oooo....oooo    oooo                oooo",
"XXXX    XXXX....oooo....oooo....oooo    oooo                oooo",
"XXXX    XXXX....oooo....oooo....oooo    oooo                oooo",
"XXXX    XXXX....oooo....oooo....oooo    oooo                oooo",
"        ....oooooooooooo....XXXX....oooo....oooo        oooo....",
"        ....oooooooooooo....XXXX....oooo....oooo        oooo....",
"        ....oooooooooooo....XXXX....oooo....oooo        oooo....",
"        ....oooooooooooo....XXXX....oooo....oooo        oooo....",
"        XXXX....................    oooo........oooo    oooo....",
"        XXXX....................    oooo........oooo    oooo....",
"        XXXX....................    oooo........oooo    oooo....",
"        XXXX....................    oooo........oooo    oooo....",
"    XXXX    oooo    ....oooo............oooo....oooo        oooo",
"    XXXX    oooo    ....oooo............oooo....oooo        oooo",
"    XXXX    oooo    ....oooo............oooo....oooo        oooo",
"    XXXX    oooo    ....oooo............oooo....oooo        oooo",
"    ....        oooooooo........oooo............oooo....        ",
"    ....        oooooooo........oooo............oooo....        ",
"    ....        oooooooo........oooo............oooo....        ",
"    ....        oooooooo........oooo............oooo....        ",
"    oooo    ........................                        ....",
"    oooo    ........................                        ....",
"    oooo    ........................                        ....",
"    oooo    ........................                        ....",
"        ....        ....oooo....                ....XXXX........",
"        ....        ....oooo....                ....XXXX........",
"        ....        ....oooo....                ....XXXX........",
"        ....        ....oooo....                ....XXXX........",
"        ....        oooo........                ooooXXXXoooo....",
"        ....        oooo........                ooooXXXXoooo....",
"        ....        oooo........                ooooXXXXoooo....",
"        ....        oooo........                ooooXXXXoooo....",
"                                    ....    ....    XXXXoooo....",
"                                    ....    ....    XXXXoooo....",
"                                    ....    ....    XXXXoooo....",
"                                    ....    ....    XXXXoooo....",
"            oooo....            oooo    oooo....    XXXXoooo....",
"            oooo....            oooo    oooo....    XXXXoooo....",
"            oooo....            oooo    oooo....    XXXXoooo....",
"            oooo....            oooo    oooo....    XXXXoooo....",
"....    oooo....................        ........    oooo....oooo",
"....    oooo....................        ........    oooo....oooo",
"....    oooo....................        ........    oooo....oooo",
"....    oooo....................        ........    oooo....oooo",
"............XXXXXXXXXXXX....    ........    ....    XXXXoooooooo",
"............XXXXXXXXXXXX....    ........    ....    XXXXoooooooo",
"............XXXXXXXXXXXX....    ........    ....    XXXXoooooooo",
"............XXXXXXXXXXXX....    ........    ....    XXXXoooooooo",
"XXXXoooooooo............XXXX    ....XXXX....    XXXXoooooooo....",
"XXXXoooooooo............XXXX    ....XXXX....    XXXXoooooooo....",
"XXXXoooooooo............XXXX    ....XXXX....    XXXXoooooooo....",
"XXXXoooooooo............XXXX    ....XXXX....    XXXXoooooooo....",
"ooooooooXXXXXXXX........XXXXXXXXXXXXoooo....XXXXoooooooo....oooo",
"ooooooooXXXXXXXX........XXXXXXXXXXXXoooo....XXXXoooooooo....oooo",
"ooooooooXXXXXXXX........XXXXXXXXXXXXoooo....XXXXoooooooo....oooo",
"ooooooooXXXXXXXX........XXXXXXXXXXXXoooo....XXXXoooooooo....oooo"
};
