/* XPM */
static char *result[] = {
/* columns rows colors chars-per-pixel */
"16 16 4 1 ",
"  c #85C646",
". c #8CD149",
"X c #93DB4D",
"o c #99E550",
/* pixels */
"o..XX...oooXoXoo",
".....ooooo Xo oo",
"X X.o.o.o o oo o",
"o .ooo.X.o.oooo.",
"o X..... o..ooo.",
"oX o..o..oo.oooo",
"X. ooo..ooooooo ",
" o o....o ooo o.",
"o o o.o. o ooo..",
"ooo. oooooooooo.",
"oooo oo.oooo Xo.",
"ooooo  oooo.oXoo",
".ooooo.o ooo o.o",
"..oXooo.o.oooXoo",
"Xoooo.Xo.o.oooo.",
"ooXX..XXXo.Xoo.o"
};
