/* XPM */
static char *result[] = {
/* columns rows colors chars-per-pixel */
"64 64 5 1 ",
"  c #77B13E",
". c #85C646",
"X c #8CD149",
"o c #93DB4D",
"O c #99E550",
/* pixels */
"OOOOXXXXXXXXooooooooXXXXXXXXXXXXOOOOOOOOOOOOooooooooooooOOOOOOOO",
"OOOOXXXXXXXXooooooooXXXXXXXXXXXXOOOOOOOOOOOOooooooooooooOOOOOOOO",
"OOOOXXXXXXXXooooooooXXXXXXXXXXXXOOOOOOOOOOOOooooooooooooOOOOOOOO",
"OOOOXXXXXXXXooooooooXXXXXXXXXXXXOOOOOOOOOOOOooooooooooooOOOOOOOO",
"XXXXXXXXXXXXXXXXXXXXOOOOOOOOOOOOOOOOXXXXoooooooooooo....OOOOOOOO",
"XXXXXXXXXXXXXXXXXXXXOOOOOOOOOOOOOOOOXXXXoooooooooooo....OOOOOOOO",
"XXXXXXXXXXXXXXXXXXXXOOOOOOOOOOOOOOOOXXXXoooooooooooo....OOOOOOOO",
"XXXXXXXXXXXXXXXXXXXXOOOOOOOOOOOOOOOOXXXXoooooooooooo....OOOOOOOO",
"ooooooooooooXXXXOOOOXXXXOOOOXXXXXXXXooooXXXXoooo............OOOO",
"ooooooooooooXXXXOOOOXXXXOOOOXXXXXXXXooooXXXXoooo............OOOO",
"ooooooooooooXXXXOOOOXXXXOOOOXXXXXXXXooooXXXXoooo............OOOO",
"ooooooooooooXXXXOOOOXXXXOOOOXXXXXXXXooooXXXXoooo............OOOO",
"OOOOooooXXXXOOOOOOOOooooXXXXooooXXXXXXXX....XXXX........OOOOXXXX",
"OOOOooooXXXXOOOOOOOOooooXXXXooooXXXXXXXX....XXXX........OOOOXXXX",
"OOOOooooXXXXOOOOOOOOooooXXXXooooXXXXXXXX....XXXX........OOOOXXXX",
"OOOOooooXXXXOOOOOOOOooooXXXXooooXXXXXXXX....XXXX........OOOOXXXX",
"OOOOXXXXooooXXXXOOOO....ooooXXXX....XXXX....OOOOXXXX........XXXX",
"OOOOXXXXooooXXXXOOOO....ooooXXXX....XXXX....OOOOXXXX........XXXX",
"OOOOXXXXooooXXXXOOOO....ooooXXXX....XXXX....OOOOXXXX........XXXX",
"OOOOXXXXooooXXXXOOOO....ooooXXXX....XXXX....OOOOXXXX........XXXX",
"OOOOooooXXXXXXXXXXXX....XXXX....XXXX........XXXXoooooooo........",
"OOOOooooXXXXXXXXXXXX....XXXX....XXXX........XXXXoooooooo........",
"OOOOooooXXXXXXXXXXXX....XXXX....XXXX........XXXXoooooooo........",
"OOOOooooXXXXXXXXXXXX....XXXX....XXXX........XXXXoooooooo........",
"ooooXXXX....XXXXXXXXXXXXOOOOXXXX........XXXXXXXXooooXXXX........",
"ooooXXXX....XXXXXXXXXXXXOOOOXXXX........XXXXXXXXooooXXXX........",
"ooooXXXX....XXXXXXXXXXXXOOOOXXXX........XXXXXXXXooooXXXX........",
"ooooXXXX....XXXXXXXXXXXXOOOOXXXX........XXXXXXXXooooXXXX........",
"....XXXX........XXXXOOOOXXXXXXXX........XXXXooooXXXXXXXX....XXXX",
"....XXXX........XXXXOOOOXXXXXXXX........XXXXooooXXXXXXXX....XXXX",
"....XXXX........XXXXOOOOXXXXXXXX........XXXXooooXXXXXXXX....XXXX",
"....XXXX........XXXXOOOOXXXXXXXX........XXXXooooXXXXXXXX....XXXX",
"XXXX....XXXXXXXX....XXXXXXXX....XXXXXXXXooooXXXXooooooooXXXXXXXX",
"XXXX....XXXXXXXX....XXXXXXXX....XXXXXXXXooooXXXXooooooooXXXXXXXX",
"XXXX....XXXXXXXX....XXXXXXXX....XXXXXXXXooooXXXXooooooooXXXXXXXX",
"XXXX....XXXXXXXX....XXXXXXXX....XXXXXXXXooooXXXXooooooooXXXXXXXX",
"OOOOOOOOooooXXXX....XXXX............XXXXOOOOooooOOOOooooXXXXXXXX",
"OOOOOOOOooooXXXX....XXXX............XXXXOOOOooooOOOOooooXXXXXXXX",
"OOOOOOOOooooXXXX....XXXX............XXXXOOOOooooOOOOooooXXXXXXXX",
"OOOOOOOOooooXXXX....XXXX............XXXXOOOOooooOOOOooooXXXXXXXX",
"OOOOXXXXXXXXooooXXXX........XXXXXXXX....ooooooooooooooooXXXXXXXX",
"OOOOXXXXXXXXooooXXXX........XXXXXXXX....ooooooooooooooooXXXXXXXX",
"OOOOXXXXXXXXooooXXXX........XXXXXXXX....ooooooooooooooooXXXXXXXX",
"OOOOXXXXXXXXooooXXXX........XXXXXXXX....ooooooooooooooooXXXXXXXX",
"XXXXXXXXooooooooooooXXXX....XXXX....ooooooooooooOOOOooooXXXXXXXX",
"XXXXXXXXooooooooooooXXXX....XXXX....ooooooooooooOOOOooooXXXXXXXX",
"XXXXXXXXooooooooooooXXXX....XXXX....ooooooooooooOOOOooooXXXXXXXX",
"XXXXXXXXooooooooooooXXXX....XXXX....ooooooooooooOOOOooooXXXXXXXX",
"XXXXooooXXXXXXXXXXXXXXXX........ooooooooXXXXOOOOooooOOOOXXXXXXXX",
"XXXXooooXXXXXXXXXXXXXXXX........ooooooooXXXXOOOOooooOOOOXXXXXXXX",
"XXXXooooXXXXXXXXXXXXXXXX........ooooooooXXXXOOOOooooOOOOXXXXXXXX",
"XXXXooooXXXXXXXXXXXXXXXX........ooooooooXXXXOOOOooooOOOOXXXXXXXX",
"XXXXXXXXoooooooooooooooo....XXXXOOOOXXXX    ooooooooooooXXXXXXXX",
"XXXXXXXXoooooooooooooooo....XXXXOOOOXXXX    ooooooooooooXXXXXXXX",
"XXXXXXXXoooooooooooooooo....XXXXOOOOXXXX    ooooooooooooXXXXXXXX",
"XXXXXXXXoooooooooooooooo....XXXXOOOOXXXX    ooooooooooooXXXXXXXX",
"ooooOOOOOOOOooooooooXXXXooooooooXXXXooooXXXXooooooooOOOOXXXXXXXX",
"ooooOOOOOOOOooooooooXXXXooooooooXXXXooooXXXXooooooooOOOOXXXXXXXX",
"ooooOOOOOOOOooooooooXXXXooooooooXXXXooooXXXXooooooooOOOOXXXXXXXX",
"ooooOOOOOOOOooooooooXXXXooooooooXXXXooooXXXXooooooooOOOOXXXXXXXX",
"OOOOOOOOooooooooXXXXXXXXooooooooooooOOOOXXXXooooOOOOOOOOXXXXXXXX",
"OOOOOOOOooooooooXXXXXXXXooooooooooooOOOOXXXXooooOOOOOOOOXXXXXXXX",
"OOOOOOOOooooooooXXXXXXXXooooooooooooOOOOXXXXooooOOOOOOOOXXXXXXXX",
"OOOOOOOOooooooooXXXXXXXXooooooooooooOOOOXXXXooooOOOOOOOOXXXXXXXX"
};
